SplineFontDB: 3.0
FontName: SouvenirSymbols
FullName: Souvenir Symbols
FamilyName: Souvenir Symbols
Weight: Book
Copyright: 
Version: 1.0
ItalicAngle: 0
UnderlinePosition: -119
UnderlineWidth: 35
Ascent: 819
Descent: 205
InvalidEm: 0
sfntRevision: 0x00010000
LayerCount: 2
Layer: 0 1 "Back" 1
Layer: 1 1 "Fore" 0
XUID: [1021 207 -192674669 13332]
StyleMap: 0x0040
FSType: 0
OS2Version: 2
OS2_WeightWidthSlopeOnly: 0
OS2_UseTypoMetrics: 0
CreationTime: 1546328038
ModificationTime: 1550207106
PfmFamily: 81
TTFWeight: 400
TTFWidth: 5
LineGap: 0
VLineGap: 0
Panose: 0 0 0 0 0 0 0 0 0 0
OS2TypoAscent: 903
OS2TypoAOffset: 0
OS2TypoDescent: -64
OS2TypoDOffset: 0
OS2TypoLinegap: 100
OS2WinAscent: 903
OS2WinAOffset: 0
OS2WinDescent: 64
OS2WinDOffset: 0
HheadAscent: 903
HheadAOffset: 0
HheadDescent: -64
HheadDOffset: 0
OS2SubXSize: 40
OS2SubYSize: 40
OS2SubXOff: 40
OS2SubYOff: 40
OS2SupXSize: 40
OS2SupYSize: 40
OS2SupXOff: 40
OS2SupYOff: 40
OS2StrikeYSize: 40
OS2StrikeYPos: 200
OS2CapHeight: 903
OS2XHeight: 737
OS2Vendor: 'Bird'
OS2CodePages: 00000001.00000000
OS2UnicodeRanges: 00000001.00000000.00000000.00000000
Lookup: 265 0 0 "'kern' Horizontal Kerning lookup 0" { } [' RQD' ('DFLT' <'dflt' > ) 'kern' ('DFLT' <'dflt' > ) ]
MarkAttachClasses: 1
DEI: 91125
ShortTable: maxp 16
  1
  0
  49
  392
  10
  0
  0
  1
  0
  0
  0
  0
  0
  0
  0
  0
EndShort
LangName: 1033 "" "" "Regular" "" "" "Version 1.0" "" "" "" "" "Font generated by IcoMoon." "" "" "SIL Open Font License"
GaspTable: 1 65535 2 0
Encoding: UnicodeFull
UnicodeInterp: none
NameList: AGL For New Fonts
DisplaySize: -48
AntiAlias: 1
FitToEm: 1
WinInfo: 0 32 14
BeginPrivate: 0
EndPrivate
Grid
-1024 -48 m 0
 2048 -48 l 1024
  Named: "Bottom"
-582 901 m 0
 2490 901 l 1024
  Named: "Top"
EndSplineSet
BeginChars: 1114113 55

StartChar: .notdef
Encoding: 1114112 -1 0
Width: 543
Flags: W
LayerCount: 2
Fore
SplineSet
51 102 m 1,0,1
 128 102 128 102 358 102 c 1,2,3
 358 51 358 51 358 -102 c 1,4,5
 282 -102 282 -102 51 -102 c 1,6,7
 51 -34 51 -34 51 102 c 1,0,1
EndSplineSet
Validated: 1
EndChar

StartChar: period
Encoding: 46 46 4
Width: 1024
Flags: W
LayerCount: 2
Fore
SplineSet
597 299 m 257,0,1
 597 299 597 299 597 299 c 257,2,3
 597 299 597 299 597 299 c 1,4,5
 426 299 426 299 85 299 c 0,6,7
 66 299 66 299 54 287 c 0,8,9
 43 275 43 275 43 256 c 256,10,11
 43 237 43 237 54 225 c 0,12,13
 66 213 66 213 85 213 c 0,14,15
 256 213 256 213 597 213 c 1,16,17
 597 213 597 213 597 213 c 257,18,19
 597 213 597 213 597 213 c 1,20,21
 607 213 607 213 614 210 c 256,22,23
 621 207 621 207 627 201 c 0,24,25
 634 194 634 194 637 187 c 256,26,27
 640 180 640 180 640 171 c 0,28,29
 640 161 640 161 637 154 c 256,30,31
 634 147 634 147 627 141 c 0,32,33
 621 134 621 134 614 131 c 256,34,35
 607 128 607 128 597 128 c 1,36,37
 597 128 597 128 597 128 c 257,38,39
 597 128 597 128 597 128 c 1,40,41
 588 128 588 128 581 131 c 256,42,43
 574 134 574 134 567 141 c 0,44,45
 555 154 555 154 538 154 c 256,46,47
 521 154 521 154 508 141 c 256,48,49
 495 128 495 128 495 111 c 256,50,51
 495 94 495 94 508 81 c 0,52,53
 527 62 527 62 550 53 c 0,54,55
 572 43 572 43 597 43 c 1,56,57
 597 43 597 43 597 43 c 257,58,59
 597 43 597 43 597 43 c 1,60,61
 623 43 623 43 646 53 c 0,62,63
 668 62 668 62 687 81 c 256,64,65
 706 100 706 100 715 122 c 0,66,67
 725 145 725 145 725 171 c 0,68,69
 725 196 725 196 715 220 c 0,70,71
 706 244 706 244 687 260 c 1,72,73
 671 279 671 279 647 289 c 256,74,75
 623 299 623 299 597 299 c 1,76,77
 597 299 597 299 597 299 c 257,0,1
85 555 m 1,78,79
 181 555 181 555 469 555 c 1,80,81
 469 555 469 555 469 555 c 257,82,83
 469 555 469 555 469 555 c 1,84,85
 495 555 495 555 519 565 c 0,86,87
 543 574 543 574 559 593 c 0,88,89
 597 631 597 631 597 684 c 256,90,91
 597 737 597 737 559 772 c 0,92,93
 543 791 543 791 519 801 c 256,94,95
 495 811 495 811 469 811 c 0,96,97
 444 811 444 811 420 801 c 256,98,99
 396 791 396 791 380 772 c 0,100,101
 367 759 367 759 367 742 c 256,102,103
 367 725 367 725 380 713 c 0,104,105
 393 700 393 700 410 700 c 256,106,107
 427 700 427 700 439 713 c 0,108,109
 446 719 446 719 453 722 c 256,110,111
 460 725 460 725 469 725 c 1,112,113
 469 725 469 725 469 725 c 257,114,115
 469 725 469 725 469 725 c 1,116,117
 479 725 479 725 486 722 c 256,118,119
 493 719 493 719 499 713 c 0,120,121
 512 700 512 700 512 683 c 256,122,123
 512 666 512 666 499 653 c 0,124,125
 493 646 493 646 486 643 c 256,126,127
 479 640 479 640 469 640 c 1,128,129
 469 640 469 640 469 640 c 257,130,131
 469 640 469 640 469 640 c 1,132,133
 341 640 341 640 85 640 c 0,134,135
 66 640 66 640 54 628 c 0,136,137
 43 617 43 617 43 597 c 0,138,139
 43 578 43 578 54 566 c 0,140,141
 66 555 66 555 85 555 c 1,142,143
 85 555 85 555 85 555 c 1,78,79
939 640 m 1,144,145
 894 685 894 685 833 685 c 0,146,147
 771 685 771 685 730 640 c 0,148,149
 717 627 717 627 717 610 c 256,150,151
 717 593 717 593 730 580 c 0,152,153
 742 567 742 567 760 567 c 0,154,155
 777 567 777 567 789 580 c 0,156,157
 809 599 809 599 834 599 c 0,158,159
 860 599 860 599 879 580 c 256,160,161
 898 561 898 561 898 536 c 0,162,163
 898 510 898 510 879 491 c 0,164,165
 869 481 869 481 857 477 c 0,166,167
 845 474 845 474 832 474 c 0,168,169
 583 474 583 474 85 474 c 0,170,171
 66 474 66 474 54 462 c 0,172,173
 43 450 43 450 43 431 c 256,174,175
 43 412 43 412 54 400 c 0,176,177
 66 388 66 388 85 388 c 0,178,179
 334 388 334 388 832 388 c 0,180,181
 861 388 861 388 888 400 c 0,182,183
 916 412 916 412 939 431 c 0,184,185
 980 473 980 473 980 534 c 256,186,187
 980 595 980 595 939 640 c 1,188,189
 939 640 939 640 939 640 c 1,144,145
EndSplineSet
Validated: 5
EndChar

StartChar: A
Encoding: 65 65 5
Width: 1721
Flags: W
LayerCount: 2
Fore
SplineSet
0 901 m 1,0,1
 1720 901 l 1,2,3
 1720 0 l 1,4,5
 0 0 l 1,6,7
 0 901 l 1,0,1
82 82 m 1,8,9
 1638 82 l 1,10,11
 1638 819 l 1,12,13
 82 819 l 1,14,15
 82 82 l 1,8,9
EndSplineSet
EndChar

StartChar: B
Encoding: 66 66 6
Width: 1721
Flags: W
LayerCount: 2
Fore
SplineSet
0 901 m 1,0,1
 1270 901 l 0,2,3
 1475 901 1475 901 1597 778 c 0,4,5
 1720 655 1720 655 1720 451 c 0,6,7
 1720 246 1720 246 1597 123 c 0,8,9
 1475 0 1475 0 1270 0 c 0,10,11
 0 0 l 1,12,13
 0 901 l 1,0,1
82 82 m 1,14,15
 1270 82 l 0,16,17
 1434 82 1434 82 1536 184 c 0,18,19
 1638 287 1638 287 1638 451 c 0,20,21
 1638 614 1638 614 1536 717 c 0,22,23
 1434 819 1434 819 1270 819 c 0,24,25
 82 819 l 1,26,27
 82 82 l 1,14,15
EndSplineSet
EndChar

StartChar: C
Encoding: 67 67 7
Width: 1721
Flags: W
LayerCount: 2
Fore
SplineSet
0 0 m 5,0,1
 0 901 l 5,2,3
 1270 901 l 5,4,5
 1720 451 l 5,6,7
 1270 0 l 5,8,9
 0 0 l 5,0,1
82 82 m 5,10,11
 1229 82 l 5,12,13
 1597 451 l 5,14,15
 1229 819 l 5,16,17
 82 819 l 5,18,19
 82 82 l 5,10,11
EndSplineSet
EndChar

StartChar: D
Encoding: 68 68 8
Width: 1721
Flags: W
LayerCount: 2
Fore
SplineSet
0 901 m 1,0,1
 1475 901 l 1,2,3
 1475 778 1475 778 1536 717 c 0,4,5
 1597 655 1597 655 1720 655 c 1,6,7
 1720 246 l 1,8,9
 1597 246 1597 246 1536 184 c 0,10,11
 1475 123 1475 123 1475 0 c 1,12,13
 0 0 l 1,14,15
 0 901 l 1,0,1
82 82 m 1,16,17
 1393 82 l 1,18,19
 1403 195 1403 195 1464 251 c 0,20,21
 1526 307 1526 307 1638 328 c 1,22,23
 1638 573 l 1,24,25
 1526 594 1526 594 1469 650 c 0,26,27
 1413 707 1413 707 1393 819 c 1,28,29
 82 819 l 1,30,31
 82 82 l 1,16,17
EndSplineSet
EndChar

StartChar: E
Encoding: 69 69 9
Width: 1721
Flags: W
LayerCount: 2
Fore
SplineSet
1720 0 m 1,0,1
 451 0 l 0,2,3
 246 0 246 0 123 123 c 256,4,5
 0 246 0 246 0 451 c 0,6,7
 0 655 0 655 123 778 c 256,8,9
 246 901 246 901 451 901 c 0,10,11
 1720 901 l 1,12,13
 1720 0 l 1,0,1
1638 819 m 1,14,15
 451 819 l 0,16,17
 287 819 287 819 184 717 c 0,18,19
 82 614 82 614 82 451 c 0,20,21
 82 287 82 287 184 184 c 0,22,23
 287 82 287 82 451 82 c 0,24,25
 1638 82 l 1,26,27
 1638 819 l 1,14,15
EndSplineSet
EndChar

StartChar: F
Encoding: 70 70 10
Width: 1721
Flags: W
LayerCount: 2
Fore
SplineSet
1270 0 m 256,0,1
 451 0 l 0,2,3
 246 0 246 0 123 123 c 256,4,5
 0 246 0 246 0 451 c 0,6,7
 0 655 0 655 123 778 c 256,8,9
 246 901 246 901 451 901 c 0,10,11
 1270 901 l 0,12,13
 1475 901 1475 901 1597 778 c 0,14,15
 1720 655 1720 655 1720 451 c 0,16,17
 1720 246 1720 246 1597 123 c 0,18,19
 1475 0 1475 0 1270 0 c 256,0,1
1638 451 m 0,20,21
 1638 614 1638 614 1536 717 c 0,22,23
 1434 819 1434 819 1270 819 c 0,24,25
 451 819 l 0,26,27
 287 819 287 819 184 717 c 0,28,29
 82 614 82 614 82 451 c 0,30,31
 82 287 82 287 184 184 c 0,32,33
 287 82 287 82 451 82 c 0,34,35
 1270 82 l 0,36,37
 1434 82 1434 82 1536 184 c 0,38,39
 1638 287 1638 287 1638 451 c 0,20,21
EndSplineSet
EndChar

StartChar: G
Encoding: 71 71 11
Width: 1721
Flags: W
LayerCount: 2
Fore
SplineSet
1270 0 m 1,0,1
 451 0 l 0,2,3
 246 0 246 0 123 123 c 256,4,5
 0 246 0 246 0 451 c 0,6,7
 0 655 0 655 123 778 c 256,8,9
 246 901 246 901 451 901 c 0,10,11
 1270 901 l 1,12,13
 1720 451 l 1,14,15
 1270 0 l 1,0,1
1597 451 m 1,16,17
 1229 819 l 1,18,19
 451 819 l 0,20,21
 287 819 287 819 184 717 c 0,22,23
 82 614 82 614 82 451 c 0,24,25
 82 287 82 287 184 184 c 0,26,27
 287 82 287 82 451 82 c 0,28,29
 1229 82 l 1,30,31
 1597 451 l 1,16,17
EndSplineSet
EndChar

StartChar: H
Encoding: 72 72 12
Width: 1721
Flags: W
LayerCount: 2
Fore
SplineSet
0 451 m 0,0,1
 0 655 0 655 123 778 c 256,2,3
 246 901 246 901 451 901 c 0,4,5
 1475 901 l 1,6,7
 1536 717 l 0,8,9
 1597 655 1597 655 1720 655 c 1,10,11
 1720 246 l 1,12,13
 1597 246 1597 246 1536 184 c 0,14,15
 1475 123 1475 123 1475 0 c 1,16,17
 451 0 l 0,18,19
 246 0 246 0 123 123 c 256,20,21
 0 246 0 246 0 451 c 0,0,1
451 82 m 0,22,23
 1393 82 l 1,24,25
 1403 195 1403 195 1464 251 c 0,26,27
 1526 307 1526 307 1638 328 c 1,28,29
 1638 573 l 1,30,31
 1526 594 1526 594 1469 650 c 0,32,33
 1413 707 1413 707 1393 819 c 1,34,35
 451 819 l 0,36,37
 287 819 287 819 184 717 c 0,38,39
 82 614 82 614 82 451 c 0,40,41
 82 287 82 287 184 184 c 0,42,43
 287 82 287 82 451 82 c 0,22,23
EndSplineSet
EndChar

StartChar: I
Encoding: 73 73 13
Width: 1721
Flags: W
LayerCount: 2
Fore
SplineSet
451 0 m 1,0,1
 0 451 l 1,2,3
 451 901 l 1,4,5
 1720 901 l 1,6,7
 1720 0 l 1,8,9
 451 0 l 1,0,1
1638 819 m 1,10,11
 492 819 l 1,12,13
 123 451 l 1,14,15
 492 82 l 1,16,17
 1638 82 l 1,18,19
 1638 819 l 1,10,11
EndSplineSet
EndChar

StartChar: J
Encoding: 74 74 14
Width: 1721
Flags: W
LayerCount: 2
Fore
SplineSet
451 0 m 1,0,1
 0 451 l 1,2,3
 451 901 l 1,4,5
 1270 901 l 0,6,7
 1475 901 1475 901 1597 778 c 0,8,9
 1720 655 1720 655 1720 451 c 0,10,11
 1720 246 1720 246 1597 123 c 0,12,13
 1475 0 1475 0 1270 0 c 0,14,15
 451 0 l 1,0,1
1638 451 m 0,16,17
 1638 614 1638 614 1536 717 c 0,18,19
 1434 819 1434 819 1270 819 c 0,20,21
 492 819 l 1,22,23
 123 451 l 1,24,25
 492 82 l 1,26,27
 1270 82 l 0,28,29
 1434 82 1434 82 1536 184 c 0,30,31
 1638 287 1638 287 1638 451 c 0,16,17
EndSplineSet
EndChar

StartChar: K
Encoding: 75 75 15
Width: 1721
Flags: W
LayerCount: 2
Fore
SplineSet
451 0 m 1,0,1
 0 451 l 1,2,3
 451 901 l 1,4,5
 1270 901 l 1,6,7
 1720 451 l 1,8,9
 1270 0 l 1,10,11
 451 0 l 1,0,1
1597 451 m 1,12,13
 1229 819 l 1,14,15
 492 819 l 1,16,17
 123 451 l 1,18,19
 492 82 l 1,20,21
 1229 82 l 1,22,23
 1597 451 l 1,12,13
EndSplineSet
EndChar

StartChar: L
Encoding: 76 76 16
Width: 1721
Flags: W
LayerCount: 2
Fore
SplineSet
0 451 m 1,0,1
 451 901 l 1,2,3
 1475 901 l 1,4,5
 1475 778 1475 778 1536 717 c 0,6,7
 1597 655 1597 655 1720 655 c 1,8,9
 1720 246 l 1,10,11
 1597 246 1597 246 1536 184 c 0,12,13
 1475 123 1475 123 1475 0 c 1,14,15
 451 0 l 1,16,17
 0 451 l 1,0,1
492 82 m 1,18,19
 1393 82 l 1,20,21
 1403 195 1403 195 1464 251 c 0,22,23
 1526 307 1526 307 1638 328 c 1,24,25
 1638 573 l 1,26,27
 1526 594 1526 594 1469 650 c 0,28,29
 1413 707 1413 707 1393 819 c 1,30,31
 492 819 l 1,32,33
 123 451 l 1,34,35
 492 82 l 1,18,19
EndSplineSet
EndChar

StartChar: M
Encoding: 77 77 17
Width: 1721
Flags: W
LayerCount: 2
Fore
SplineSet
1720 0 m 1,0,1
 246 0 l 1,2,3
 246 123 246 123 184 184 c 0,4,5
 123 246 123 246 0 246 c 1,6,7
 0 655 l 1,8,9
 123 655 123 655 184 717 c 0,10,11
 246 778 246 778 246 901 c 1,12,13
 1720 901 l 1,14,15
 1720 0 l 1,0,1
1638 819 m 1,16,17
 328 819 l 1,18,19
 307 707 307 707 251 650 c 0,20,21
 195 594 195 594 82 573 c 1,22,23
 82 328 l 1,24,25
 195 307 195 307 256 251 c 256,26,27
 317 195 317 195 328 82 c 1,28,29
 1638 82 l 1,30,31
 1638 819 l 1,16,17
EndSplineSet
EndChar

StartChar: N
Encoding: 78 78 18
Width: 1721
Flags: W
LayerCount: 2
Fore
SplineSet
1597 123 m 0,0,1
 1475 0 1475 0 1270 0 c 0,2,3
 246 0 l 1,4,5
 246 123 246 123 184 184 c 0,6,7
 123 246 123 246 0 246 c 1,8,9
 0 655 l 1,10,11
 123 655 123 655 184 717 c 0,12,13
 246 778 246 778 246 901 c 1,14,15
 1270 901 l 0,16,17
 1475 901 1475 901 1597 778 c 0,18,19
 1720 655 1720 655 1720 451 c 0,20,21
 1720 246 1720 246 1597 123 c 0,0,1
1536 184 m 0,22,23
 1638 287 1638 287 1638 451 c 0,24,25
 1638 614 1638 614 1536 717 c 0,26,27
 1434 819 1434 819 1270 819 c 0,28,29
 328 819 l 1,30,31
 307 707 307 707 251 650 c 0,32,33
 195 594 195 594 82 573 c 1,34,35
 82 328 l 1,36,37
 195 307 195 307 256 251 c 256,38,39
 317 195 317 195 328 82 c 1,40,41
 1270 82 l 0,42,43
 1434 82 1434 82 1536 184 c 0,22,23
EndSplineSet
EndChar

StartChar: O
Encoding: 79 79 19
Width: 1721
Flags: W
LayerCount: 2
Fore
SplineSet
1270 0 m 1,0,1
 246 0 l 1,2,3
 246 123 246 123 184 184 c 0,4,5
 123 246 123 246 0 246 c 1,6,7
 0 655 l 1,8,9
 123 655 123 655 184 717 c 0,10,11
 246 778 246 778 246 901 c 1,12,13
 1270 901 l 1,14,15
 1720 451 l 1,16,17
 1270 0 l 1,0,1
1597 451 m 1,18,19
 1229 819 l 1,20,21
 328 819 l 1,22,23
 307 707 307 707 251 650 c 0,24,25
 195 594 195 594 82 573 c 1,26,27
 82 328 l 1,28,29
 195 307 195 307 256 251 c 256,30,31
 317 195 317 195 328 82 c 1,32,33
 1229 82 l 1,34,35
 1597 451 l 1,18,19
EndSplineSet
EndChar

StartChar: P
Encoding: 80 80 20
Width: 1721
Flags: W
LayerCount: 2
Fore
SplineSet
1475 0 m 1,0,1
 246 0 l 1,2,3
 246 123 246 123 184 184 c 0,4,5
 123 246 123 246 0 246 c 1,6,7
 0 655 l 1,8,9
 123 655 123 655 184 717 c 0,10,11
 246 778 246 778 246 901 c 1,12,13
 1475 901 l 1,14,15
 1476 779 1476 779 1537 717 c 0,16,17
 1597 655 1597 655 1720 655 c 1,18,19
 1720 246 l 1,20,21
 1597 246 1597 246 1536 184 c 0,22,23
 1475 123 1475 123 1475 0 c 1,0,1
1638 328 m 1,24,25
 1638 573 l 1,26,27
 1526 594 1526 594 1469 650 c 0,28,29
 1413 707 1413 707 1393 819 c 1,30,31
 328 819 l 1,32,33
 307 707 307 707 251 650 c 0,34,35
 195 594 195 594 82 573 c 1,36,37
 82 328 l 1,38,39
 195 307 195 307 256 251 c 256,40,41
 317 195 317 195 328 82 c 1,42,43
 1393 82 l 1,44,45
 1413 195 1413 195 1469 251 c 0,46,47
 1526 307 1526 307 1638 328 c 1,24,25
EndSplineSet
EndChar

StartChar: Q
Encoding: 81 81 21
Width: 318
Flags: W
LayerCount: 2
Fore
SplineSet
256 899 m 1,0,-1
 259 895 l 0,1,-1
 259 866 l 0,2,-1
 221 509 l 1,3,4
 234 505 234 505 245 500 c 256,5,6
 256 495 256 495 264 488 c 0,7,8
 273 481 273 481 279 472 c 0,9,10
 284 463 284 463 284 453 c 0,11,12
 284 438 284 438 273 427 c 0,13,14
 262 415 262 415 245 406 c 0,15,16
 228 398 228 398 205 394 c 0,17,18
 183 389 183 389 157 389 c 0,19,20
 132 389 132 389 109 394 c 0,21,22
 87 398 87 398 70 406 c 0,23,24
 53 415 53 415 42 427 c 0,25,26
 31 438 31 438 31 453 c 0,27,28
 31 463 31 463 36 472 c 0,29,30
 42 481 42 481 51 488 c 0,31,32
 59 495 59 495 70 500 c 256,33,34
 81 505 81 505 94 509 c 1,35,-1
 56 866 l 0,36,-1
 56 895 l 0,37,-1
 59 900 l 1,38,-1
 256 899 l 1,0,-1
71 873 m 1,39,-1
 244 873 l 1,40,-1
 244 888 l 1,41,-1
 71 888 l 1,42,-1
 71 873 l 1,39,-1
60 477 m 0,43,44
 52 471 52 471 48 465 c 0,45,46
 45 459 45 459 45 453 c 0,47,48
 45 444 45 444 53 436 c 0,49,50
 61 427 61 427 76 419 c 0,51,52
 91 412 91 412 112 408 c 0,53,54
 133 403 133 403 157 403 c 0,55,56
 182 403 182 403 203 408 c 0,57,58
 224 412 224 412 239 419 c 0,59,60
 254 427 254 427 262 436 c 0,61,62
 270 444 270 444 270 453 c 0,63,64
 270 459 270 459 266 465 c 0,65,66
 263 471 263 471 255 477 c 0,67,68
 249 482 249 482 240 486 c 0,69,70
 230 491 230 491 219 494 c 1,71,72
 213 438 l 0,73,74
 210 434 l 0,75,76
 206 432 l 0,77,78
 109 432 l 0,79,80
 104 434 l 0,81,82
 102 438 l 0,83,84
 96 494 l 1,85,86
 85 491 85 491 75 486 c 0,87,88
 66 482 66 482 60 477 c 0,43,44
EndSplineSet
EndChar

StartChar: R
Encoding: 82 82 22
Width: 318
Flags: W
LayerCount: 2
Fore
SplineSet
59 7 m 0,0,1
 59 36 l 0,2,3
 97 393 l 1,4,5
 84 397 84 397 73 402 c 256,6,7
 62 407 62 407 53 413 c 0,8,9
 44 421 44 421 39 429 c 0,10,11
 33 438 33 438 33 448 c 0,12,13
 33 463 33 463 44 475 c 256,14,15
 55 487 55 487 72 495 c 0,16,17
 90 503 90 503 112 508 c 0,18,19
 135 512 135 512 160 512 c 256,20,21
 185 512 185 512 208 508 c 0,22,23
 231 503 231 503 248 495 c 256,24,25
 265 487 265 487 276 475 c 256,26,27
 287 463 287 463 287 448 c 0,28,29
 287 438 287 438 281 429 c 0,30,31
 276 421 276 421 267 413 c 0,32,33
 259 407 259 407 247 402 c 0,34,35
 236 397 236 397 223 393 c 1,36,37
 261 36 l 0,38,39
 261 7 l 0,40,41
 259 3 l 1,42,43
 62 2 l 1,44,-1
 59 7 l 0,0,1
73 14 m 1,45,-1
 247 14 l 1,46,-1
 247 28 l 1,47,-1
 73 28 l 1,48,-1
 73 14 l 1,45,-1
99 408 m 1,49,-1
 105 463 l 0,50,-1
 107 467 l 0,51,-1
 112 470 l 0,52,-1
 208 470 l 0,53,-1
 213 468 l 0,54,-1
 216 463 l 0,55,-1
 221 408 l 1,56,57
 233 411 233 411 242 415 c 0,58,59
 252 420 252 420 258 425 c 0,60,61
 265 430 265 430 269 436 c 0,62,63
 272 443 272 443 272 448 c 0,64,65
 272 457 272 457 265 466 c 0,66,67
 257 475 257 475 242 482 c 0,68,69
 226 490 226 490 205 494 c 256,70,71
 184 498 184 498 160 498 c 256,72,73
 136 498 136 498 115 494 c 256,74,75
 94 490 94 490 79 482 c 0,76,77
 63 475 63 475 55 466 c 0,78,79
 48 457 48 457 48 448 c 0,80,81
 48 443 48 443 51 436 c 0,82,83
 55 430 55 430 62 425 c 256,84,85
 69 420 69 420 78 415 c 0,86,87
 87 411 87 411 99 408 c 1,49,-1
EndSplineSet
EndChar

StartChar: a
Encoding: 97 97 23
Width: 1024
Flags: W
LayerCount: 2
Fore
SplineSet
939 469 m 1,0,1
 896 469 896 469 768 469 c 0,2,3
 755 469 755 469 744 460 c 0,4,5
 733 452 733 452 730 439 c 0,6,7
 700 352 700 352 640 179 c 1,8,9
 586 340 586 340 422 823 c 0,10,11
 419 836 419 836 408 844 c 0,12,13
 397 853 397 853 384 853 c 256,14,15
 371 853 371 853 360 844 c 0,16,17
 349 836 349 836 346 823 c 0,18,19
 306 705 306 705 226 469 c 1,20,21
 191 469 191 469 85 469 c 0,22,23
 66 469 66 469 54 458 c 0,24,25
 43 446 43 446 43 427 c 0,26,27
 43 407 43 407 54 396 c 0,28,29
 66 384 66 384 85 384 c 0,30,31
 142 384 142 384 256 384 c 0,32,33
 269 384 269 384 280 392 c 0,34,35
 291 401 291 401 294 414 c 0,36,37
 324 501 324 501 384 674 c 1,38,39
 438 512 438 512 602 26 c 0,40,41
 605 13 605 13 616 4 c 0,42,43
 627 -4 627 -4 640 -4 c 256,44,45
 653 -4 653 -4 664 4 c 0,46,47
 675 13 675 13 678 26 c 0,48,49
 718 144 718 144 798 380 c 1,50,51
 833 380 833 380 939 380 c 0,52,53
 958 380 958 380 970 392 c 0,54,55
 981 403 981 403 981 422 c 0,56,57
 981 442 981 442 970 455 c 0,58,59
 958 469 958 469 939 469 c 1,60,61
 939 469 939 469 939 469 c 1,0,1
EndSplineSet
Validated: 5
EndChar

StartChar: b
Encoding: 98 98 24
Width: 1024
Flags: W
LayerCount: 2
Fore
SplineSet
939 469 m 1,0,1
 907 469 907 469 811 469 c 0,2,3
 791 469 791 469 780 458 c 0,4,5
 768 446 768 446 768 427 c 0,6,7
 768 407 768 407 780 396 c 0,8,9
 791 384 791 384 811 384 c 0,10,11
 838 384 838 384 892 384 c 1,12,13
 884 317 884 317 855 258 c 256,14,15
 826 199 826 199 781 155 c 0,16,17
 736 110 736 110 678 82 c 0,18,19
 620 53 620 53 555 47 c 1,20,21
 555 218 555 218 555 559 c 1,22,23
 609 572 609 572 646 618 c 0,24,25
 683 665 683 665 683 725 c 0,26,27
 683 796 683 796 633 846 c 0,28,29
 582 896 582 896 512 896 c 256,30,31
 442 896 442 896 391 846 c 0,32,33
 341 796 341 796 341 725 c 0,34,35
 341 665 341 665 378 620 c 256,36,37
 415 575 415 575 469 559 c 1,38,39
 469 387 469 387 469 43 c 1,40,41
 402 51 402 51 343 80 c 0,42,43
 285 109 285 109 240 154 c 0,44,45
 195 198 195 198 167 256 c 256,46,47
 139 314 139 314 132 380 c 1,48,49
 159 380 159 380 213 380 c 0,50,51
 233 380 233 380 244 392 c 0,52,53
 256 403 256 403 256 422 c 0,54,55
 256 442 256 442 244 453 c 0,56,57
 233 465 233 465 213 465 c 0,58,59
 170 465 170 465 85 465 c 0,60,61
 66 465 66 465 54 453 c 0,62,63
 43 442 43 442 43 422 c 0,64,65
 43 325 43 325 79 239 c 0,66,67
 116 154 116 154 180 90 c 0,68,69
 243 27 243 27 329 -10 c 0,70,71
 414 -47 414 -47 512 -47 c 256,72,73
 610 -47 610 -47 695 -10 c 0,74,75
 781 27 781 27 844 90 c 0,76,77
 908 154 908 154 945 239 c 0,78,79
 981 325 981 325 981 422 c 0,80,81
 981 445 981 445 970 457 c 0,82,83
 958 469 958 469 939 469 c 1,84,85
 939 469 939 469 939 469 c 1,0,1
427 725 m 1,86,87
 427 761 427 761 452 786 c 256,88,89
 477 811 477 811 512 811 c 256,90,91
 547 811 547 811 572 786 c 256,92,93
 597 761 597 761 597 725 c 0,94,95
 597 690 597 690 572 665 c 256,96,97
 547 640 547 640 512 640 c 256,98,99
 477 640 477 640 452 665 c 256,100,101
 427 690 427 690 427 725 c 1,102,103
 427 725 427 725 427 725 c 1,86,87
EndSplineSet
Validated: 5
EndChar

StartChar: c
Encoding: 99 99 25
Width: 1024
Flags: W
LayerCount: 2
Fore
SplineSet
853 597 m 1,0,1
 853 668 853 668 826 730 c 256,2,3
 799 792 799 792 753 838 c 0,4,5
 707 885 707 885 645 912 c 0,6,7
 582 939 582 939 512 939 c 256,8,9
 442 939 442 939 379 912 c 0,10,11
 317 885 317 885 271 838 c 0,12,13
 225 792 225 792 198 730 c 256,14,15
 171 668 171 668 171 597 c 0,16,17
 171 514 171 514 206 443 c 0,18,19
 242 373 242 373 303 329 c 1,20,21
 287 207 287 207 256 -38 c 0,22,23
 253 -51 253 -51 258 -63 c 256,24,25
 263 -75 263 -75 273 -81 c 256,26,27
 283 -87 283 -87 295 -87 c 256,28,29
 307 -87 307 -87 320 -81 c 0,30,31
 384 -43 384 -43 512 34 c 1,32,33
 560 5 560 5 704 -81 c 0,34,35
 707 -84 707 -84 713 -84 c 0,36,37
 719 -85 719 -85 725 -85 c 0,38,39
 732 -85 732 -85 738 -82 c 0,40,41
 743 -80 743 -80 747 -77 c 0,42,43
 750 -74 750 -74 759 -60 c 0,44,45
 767 -47 767 -47 764 -34 c 0,46,47
 748 87 748 87 717 329 c 1,48,49
 781 373 781 373 817 443 c 0,50,51
 853 514 853 514 853 597 c 1,52,53
 853 597 853 597 853 597 c 1,0,1
256 597 m 0,54,55
 256 650 256 650 276 697 c 0,56,57
 296 743 296 743 331 778 c 256,58,59
 366 813 366 813 413 833 c 0,60,61
 459 853 459 853 512 853 c 256,62,63
 565 853 565 853 611 833 c 0,64,65
 658 813 658 813 693 778 c 256,66,67
 728 743 728 743 748 697 c 0,68,69
 768 650 768 650 768 597 c 0,70,71
 768 545 768 545 748 498 c 256,72,73
 728 451 728 451 693 417 c 0,74,75
 658 382 658 382 611 362 c 0,76,77
 565 341 565 341 512 341 c 256,78,79
 459 341 459 341 413 362 c 0,80,81
 366 382 366 382 331 417 c 0,82,83
 296 451 296 451 276 498 c 256,84,85
 256 545 256 545 256 597 c 0,54,55
670 38 m 1,86,87
 636 58 636 58 533 119 c 0,88,89
 524 126 524 126 512 126 c 256,90,91
 500 126 500 126 491 119 c 0,92,93
 445 92 445 92 354 38 c 1,94,95
 361 99 361 99 384 282 c 1,96,97
 413 269 413 269 445 262 c 0,98,99
 477 256 477 256 512 256 c 256,100,101
 547 256 547 256 579 262 c 0,102,103
 611 269 611 269 640 282 c 1,104,105
 650 201 650 201 670 38 c 1,106,107
 670 38 670 38 670 38 c 1,86,87
EndSplineSet
Validated: 5
EndChar

StartChar: d
Encoding: 100 100 26
Width: 1024
Flags: W
LayerCount: 2
Fore
SplineSet
909 742 m 0,0,1
 823 785 823 785 567 913 c 1,2,3
 567 913 567 913 567 913 c 257,4,5
 567 913 567 913 567 913 c 1,6,7
 542 926 542 926 512 926 c 0,8,9
 481 926 481 926 452 913 c 0,10,11
 338 856 338 856 111 742 c 0,12,13
 79 726 79 726 61 697 c 0,14,15
 43 667 43 667 43 631 c 0,16,17
 43 496 43 496 43 226 c 0,18,19
 43 191 43 191 62 159 c 0,20,21
 80 127 80 127 115 111 c 0,22,23
 229 54 229 54 457 -60 c 0,24,25
 469 -66 469 -66 484 -69 c 0,26,27
 499 -73 499 -73 512 -73 c 0,28,29
 528 -73 528 -73 542 -69 c 0,30,31
 555 -66 555 -66 567 -60 c 0,32,33
 681 -3 681 -3 909 111 c 0,34,35
 941 127 941 127 961 158 c 0,36,37
 981 188 981 188 981 226 c 0,38,39
 981 361 981 361 981 631 c 0,40,41
 981 667 981 667 962 697 c 0,42,43
 944 726 944 726 909 742 c 0,0,1
495 841 m 1,44,45
 498 844 498 844 503 844 c 0,46,47
 509 845 509 845 512 845 c 0,48,49
 518 845 518 845 522 844 c 0,50,51
 526 844 526 844 529 841 c 0,52,53
 634 788 634 788 845 683 c 1,54,55
 762 641 762 641 512 516 c 1,56,57
 429 558 429 558 179 683 c 1,58,59
 258 723 258 723 495 841 c 1,60,61
 495 841 495 841 495 841 c 1,44,45
149 183 m 1,62,63
 140 190 140 190 134 201 c 256,64,65
 128 212 128 212 128 222 c 0,66,67
 128 353 128 353 128 614 c 1,68,69
 213 572 213 572 469 444 c 1,70,71
 469 339 469 339 469 26 c 1,72,73
 389 65 389 65 149 183 c 1,74,75
 149 183 149 183 149 183 c 1,62,63
870 183 m 0,76,77
 791 144 791 144 555 26 c 1,78,79
 555 130 555 130 555 444 c 1,80,81
 640 487 640 487 896 614 c 1,82,83
 896 516 896 516 896 222 c 0,84,85
 896 209 896 209 890 200 c 0,86,87
 883 190 883 190 870 183 c 0,76,77
EndSplineSet
Validated: 5
EndChar

StartChar: e
Encoding: 101 101 27
Width: 1024
Flags: W
LayerCount: 2
Fore
SplineSet
683 427 m 1,0,1
 663 427 663 427 652 415 c 0,2,3
 640 403 640 403 640 384 c 0,4,5
 640 270 640 270 640 43 c 0,6,7
 640 23 640 23 652 12 c 0,8,9
 663 0 663 0 683 0 c 0,10,11
 702 0 702 0 714 12 c 0,12,13
 725 23 725 23 725 43 c 0,14,15
 725 157 725 157 725 384 c 0,16,17
 725 403 725 403 714 415 c 0,18,19
 702 427 702 427 683 427 c 1,20,21
 683 427 683 427 683 427 c 1,0,1
341 427 m 1,22,23
 322 427 322 427 310 415 c 0,24,25
 299 403 299 403 299 384 c 0,26,27
 299 270 299 270 299 43 c 0,28,29
 299 23 299 23 310 12 c 0,30,31
 322 0 322 0 341 0 c 0,32,33
 361 0 361 0 372 12 c 0,34,35
 384 23 384 23 384 43 c 0,36,37
 384 157 384 157 384 384 c 0,38,39
 384 403 384 403 372 415 c 0,40,41
 361 427 361 427 341 427 c 1,42,43
 341 427 341 427 341 427 c 1,22,23
512 341 m 256,44,45
 493 341 493 341 481 330 c 0,46,47
 469 318 469 318 469 299 c 0,48,49
 469 185 469 185 469 -43 c 0,50,51
 469 -62 469 -62 481 -74 c 0,52,53
 493 -85 493 -85 512 -85 c 256,54,55
 531 -85 531 -85 543 -74 c 0,56,57
 555 -62 555 -62 555 -43 c 0,58,59
 555 71 555 71 555 299 c 0,60,61
 555 318 555 318 543 330 c 0,62,63
 531 341 531 341 512 341 c 256,44,45
1003 529 m 1,64,65
 971 599 971 599 908 641 c 256,66,67
 845 683 845 683 768 683 c 0,68,69
 761 683 761 683 747 683 c 1,70,71
 723 753 723 753 675 807 c 0,72,73
 628 861 628 861 566 894 c 0,74,75
 505 927 505 927 433 936 c 0,76,77
 410 939 410 939 387 939 c 0,78,79
 339 939 339 939 290 926 c 0,80,81
 212 907 212 907 151 860 c 0,82,83
 90 814 90 814 52 751 c 0,84,85
 15 687 15 687 3 611 c 0,86,87
 -1 585 -1 585 -1 558 c 0,88,89
 -1 508 -1 508 13 457 c 0,90,91
 29 396 29 396 63 343 c 256,92,93
 97 290 97 290 145 252 c 0,94,95
 158 242 158 242 177 243 c 0,96,97
 195 244 195 244 205 260 c 0,98,99
 214 273 214 273 213 292 c 0,100,101
 212 310 212 310 196 320 c 0,102,103
 158 349 158 349 133 391 c 0,104,105
 107 433 107 433 94 478 c 0,106,107
 78 537 78 537 87 596 c 0,108,109
 96 654 96 654 126 704 c 0,110,111
 155 754 155 754 201 790 c 0,112,113
 248 826 248 826 307 841 c 0,114,115
 366 857 366 857 425 847 c 0,116,117
 484 838 484 838 534 809 c 0,118,119
 583 780 583 780 619 733 c 256,120,121
 655 686 655 686 670 627 c 0,122,123
 673 614 673 614 685 604 c 0,124,125
 697 593 697 593 713 593 c 0,126,127
 731 593 731 593 768 593 c 0,128,129
 819 593 819 593 861 566 c 256,130,131
 903 539 903 539 926 491 c 0,132,133
 939 459 939 459 941 425 c 0,134,135
 943 390 943 390 930 358 c 256,136,137
 917 326 917 326 895 302 c 0,138,139
 873 277 873 277 841 265 c 0,140,141
 825 258 825 258 819 241 c 0,142,143
 813 225 813 225 819 209 c 0,144,145
 826 196 826 196 835 190 c 0,146,147
 845 183 845 183 858 183 c 0,148,149
 861 183 861 183 866 184 c 256,150,151
 871 185 871 185 875 188 c 0,152,153
 923 207 923 207 958 244 c 0,154,155
 992 281 992 281 1011 329 c 0,156,157
 1025 373 1025 373 1025 417 c 0,158,159
 1025 424 1025 424 1025 430 c 0,160,161
 1022 481 1022 481 1003 529 c 1,162,163
 1003 529 1003 529 1003 529 c 1,64,65
EndSplineSet
Validated: 37
EndChar

StartChar: f
Encoding: 102 102 28
Width: 1024
Flags: W
LayerCount: 2
Fore
SplineSet
768 341 m 0,0,1
 747 341 747 341 683 341 c 1,2,3
 683 384 683 384 683 512 c 1,4,5
 704 512 704 512 768 512 c 0,6,7
 838 512 838 512 889 562 c 0,8,9
 939 612 939 612 939 683 c 0,10,11
 939 753 939 753 889 803 c 0,12,13
 838 853 838 853 768 853 c 256,14,15
 698 853 698 853 647 803 c 0,16,17
 597 753 597 753 597 683 c 0,18,19
 597 654 597 654 597 597 c 1,20,21
 554 597 554 597 427 597 c 1,22,23
 427 618 427 618 427 683 c 0,24,25
 427 753 427 753 377 803 c 0,26,27
 326 853 326 853 256 853 c 256,28,29
 186 853 186 853 135 803 c 0,30,31
 85 753 85 753 85 683 c 0,32,33
 85 612 85 612 135 562 c 0,34,35
 186 512 186 512 256 512 c 0,36,37
 284 512 284 512 341 512 c 1,38,39
 341 469 341 469 341 341 c 1,40,41
 320 341 320 341 256 341 c 0,42,43
 186 341 186 341 135 291 c 0,44,45
 85 241 85 241 85 171 c 0,46,47
 85 100 85 100 135 50 c 0,48,49
 186 0 186 0 256 0 c 256,50,51
 326 0 326 0 377 50 c 0,52,53
 427 100 427 100 427 171 c 0,54,55
 427 199 427 199 427 256 c 1,56,57
 470 256 470 256 597 256 c 1,58,59
 597 235 597 235 597 171 c 0,60,61
 597 100 597 100 647 50 c 0,62,63
 698 0 698 0 768 0 c 256,64,65
 838 0 838 0 889 50 c 0,66,67
 939 100 939 100 939 171 c 0,68,69
 939 241 939 241 889 291 c 0,70,71
 838 341 838 341 768 341 c 0,0,1
683 683 m 0,72,73
 683 718 683 718 708 743 c 256,74,75
 733 768 733 768 768 768 c 256,76,77
 803 768 803 768 828 743 c 256,78,79
 853 718 853 718 853 683 c 0,80,81
 853 647 853 647 828 622 c 256,82,83
 803 597 803 597 768 597 c 0,84,85
 740 597 740 597 683 597 c 1,86,87
 683 618 683 618 683 683 c 0,72,73
341 171 m 1,88,89
 341 135 341 135 316 110 c 256,90,91
 291 85 291 85 256 85 c 256,92,93
 221 85 221 85 196 110 c 256,94,95
 171 135 171 135 171 171 c 0,96,97
 171 206 171 206 196 231 c 256,98,99
 221 256 221 256 256 256 c 0,100,101
 284 256 284 256 341 256 c 1,102,103
 341 235 341 235 341 171 c 1,104,105
 341 171 341 171 341 171 c 1,88,89
341 597 m 1,106,107
 320 597 320 597 256 597 c 0,108,109
 221 597 221 597 196 622 c 256,110,111
 171 647 171 647 171 683 c 0,112,113
 171 718 171 718 196 743 c 256,114,115
 221 768 221 768 256 768 c 256,116,117
 291 768 291 768 316 743 c 256,118,119
 341 718 341 718 341 683 c 0,120,121
 341 654 341 654 341 597 c 1,122,123
 341 597 341 597 341 597 c 1,106,107
597 341 m 1,124,125
 554 341 554 341 427 341 c 1,126,127
 427 384 427 384 427 512 c 1,128,129
 470 512 470 512 597 512 c 1,130,131
 597 469 597 469 597 341 c 1,124,125
768 85 m 256,132,133
 733 85 733 85 708 110 c 256,134,135
 683 135 683 135 683 171 c 0,136,137
 683 199 683 199 683 256 c 1,138,139
 704 256 704 256 768 256 c 0,140,141
 803 256 803 256 828 231 c 256,142,143
 853 206 853 206 853 171 c 0,144,145
 853 135 853 135 828 110 c 256,146,147
 803 85 803 85 768 85 c 256,132,133
EndSplineSet
Validated: 5
EndChar

StartChar: g
Encoding: 103 103 29
Width: 1024
Flags: W
LayerCount: 2
Fore
SplineSet
640 597 m 0,0,1
 576 597 576 597 384 597 c 0,2,3
 365 597 365 597 353 586 c 0,4,5
 341 574 341 574 341 555 c 0,6,7
 341 470 341 470 341 299 c 0,8,9
 341 279 341 279 353 268 c 0,10,11
 365 256 365 256 384 256 c 0,12,13
 469 256 469 256 640 256 c 0,14,15
 659 256 659 256 671 268 c 0,16,17
 683 279 683 279 683 299 c 0,18,19
 683 384 683 384 683 555 c 0,20,21
 683 574 683 574 671 586 c 0,22,23
 659 597 659 597 640 597 c 0,0,1
597 341 m 1,24,25
 554 341 554 341 427 341 c 1,26,27
 427 384 427 384 427 512 c 1,28,29
 470 512 470 512 597 512 c 1,30,31
 597 469 597 469 597 341 c 1,24,25
981 384 m 1,32,33
 960 384 960 384 896 384 c 1,34,35
 896 416 896 416 896 512 c 1,36,37
 917 512 917 512 981 512 c 0,38,39
 1001 512 1001 512 1012 524 c 0,40,41
 1024 535 1024 535 1024 555 c 0,42,43
 1024 574 1024 574 1012 586 c 0,44,45
 1001 597 1001 597 981 597 c 0,46,47
 953 597 953 597 896 597 c 1,48,49
 896 618 896 618 896 683 c 0,50,51
 896 737 896 737 859 774 c 256,52,53
 822 811 822 811 768 811 c 0,54,55
 740 811 740 811 683 811 c 1,56,57
 683 832 683 832 683 896 c 0,58,59
 683 915 683 915 671 927 c 256,60,61
 659 939 659 939 640 939 c 256,62,63
 621 939 621 939 609 927 c 256,64,65
 597 915 597 915 597 896 c 0,66,67
 597 868 597 868 597 811 c 1,68,69
 554 811 554 811 427 811 c 1,70,71
 427 832 427 832 427 896 c 0,72,73
 427 915 427 915 415 927 c 256,74,75
 403 939 403 939 384 939 c 256,76,77
 365 939 365 939 353 927 c 256,78,79
 341 915 341 915 341 896 c 0,80,81
 341 868 341 868 341 811 c 1,82,83
 320 811 320 811 256 811 c 0,84,85
 202 811 202 811 165 774 c 256,86,87
 128 737 128 737 128 683 c 0,88,89
 128 654 128 654 128 597 c 1,90,91
 107 597 107 597 43 597 c 0,92,93
 23 597 23 597 12 586 c 0,94,95
 0 574 0 574 0 555 c 0,96,97
 0 535 0 535 12 524 c 0,98,99
 23 512 23 512 43 512 c 0,100,101
 71 512 71 512 128 512 c 1,102,103
 128 480 128 480 128 384 c 1,104,105
 107 384 107 384 43 384 c 0,106,107
 23 384 23 384 12 372 c 0,108,109
 0 361 0 361 0 341 c 0,110,111
 0 322 0 322 12 310 c 0,112,113
 23 299 23 299 43 299 c 0,114,115
 71 299 71 299 128 299 c 1,116,117
 128 267 128 267 128 171 c 0,118,119
 128 116 128 116 165 80 c 0,120,121
 202 43 202 43 256 43 c 0,122,123
 284 43 284 43 341 43 c 1,124,125
 341 22 341 22 341 -43 c 0,126,127
 341 -62 341 -62 353 -74 c 0,128,129
 365 -85 365 -85 384 -85 c 256,130,131
 403 -85 403 -85 415 -74 c 0,132,133
 427 -62 427 -62 427 -43 c 0,134,135
 427 -14 427 -14 427 43 c 1,136,137
 470 43 470 43 597 43 c 1,138,139
 597 22 597 22 597 -43 c 0,140,141
 597 -62 597 -62 609 -74 c 0,142,143
 621 -85 621 -85 640 -85 c 256,144,145
 659 -85 659 -85 671 -74 c 0,146,147
 683 -62 683 -62 683 -43 c 0,148,149
 683 -14 683 -14 683 43 c 1,150,151
 704 43 704 43 768 43 c 0,152,153
 822 43 822 43 859 80 c 0,154,155
 896 116 896 116 896 171 c 0,156,157
 896 214 896 214 896 299 c 1,158,159
 917 299 917 299 981 299 c 0,160,161
 1001 299 1001 299 1012 310 c 0,162,163
 1024 322 1024 322 1024 341 c 0,164,165
 1024 361 1024 361 1012 372 c 0,166,167
 1001 384 1001 384 981 384 c 1,168,169
 981 384 981 384 981 384 c 1,32,33
811 171 m 0,170,171
 811 151 811 151 799 140 c 0,172,173
 787 128 787 128 768 128 c 0,174,175
 597 128 597 128 256 128 c 0,176,177
 237 128 237 128 225 140 c 0,178,179
 213 151 213 151 213 171 c 0,180,181
 213 342 213 342 213 683 c 0,182,183
 213 702 213 702 225 714 c 0,184,185
 237 725 237 725 256 725 c 0,186,187
 427 725 427 725 768 725 c 0,188,189
 787 725 787 725 799 714 c 0,190,191
 811 702 811 702 811 683 c 0,192,193
 811 512 811 512 811 171 c 0,170,171
EndSplineSet
Validated: 5
EndChar

StartChar: h
Encoding: 104 104 30
Width: 1024
Flags: W
LayerCount: 2
Fore
SplineSet
512 896 m 256,0,1
 414 896 414 896 329 859 c 0,2,3
 243 823 243 823 180 759 c 0,4,5
 116 695 116 695 79 610 c 0,6,7
 43 524 43 524 43 427 c 0,8,9
 43 329 43 329 79 244 c 0,10,11
 116 158 116 158 180 95 c 0,12,13
 243 31 243 31 329 -6 c 0,14,15
 414 -43 414 -43 512 -43 c 256,16,17
 610 -43 610 -43 695 -6 c 0,18,19
 781 31 781 31 844 95 c 0,20,21
 908 158 908 158 945 244 c 0,22,23
 981 329 981 329 981 427 c 0,24,25
 981 524 981 524 945 610 c 0,26,27
 908 695 908 695 844 759 c 0,28,29
 781 823 781 823 695 859 c 0,30,31
 610 896 610 896 512 896 c 256,0,1
512 43 m 256,32,33
 432 43 432 43 362 73 c 256,34,35
 292 103 292 103 240 155 c 256,36,37
 188 207 188 207 158 277 c 256,38,39
 128 347 128 347 128 427 c 256,40,41
 128 507 128 507 158 577 c 256,42,43
 188 647 188 647 240 699 c 256,44,45
 292 751 292 751 362 781 c 256,46,47
 432 811 432 811 512 811 c 256,48,49
 592 811 592 811 662 781 c 256,50,51
 732 751 732 751 784 699 c 256,52,53
 836 647 836 647 866 577 c 256,54,55
 896 507 896 507 896 427 c 256,56,57
 896 347 896 347 866 277 c 256,58,59
 836 207 836 207 784 155 c 256,60,61
 732 103 732 103 662 73 c 256,62,63
 592 43 592 43 512 43 c 256,32,33
512 597 m 256,64,65
 442 597 442 597 391 547 c 0,66,67
 341 497 341 497 341 427 c 0,68,69
 341 356 341 356 391 306 c 0,70,71
 442 256 442 256 512 256 c 256,72,73
 582 256 582 256 633 306 c 0,74,75
 683 356 683 356 683 427 c 0,76,77
 683 497 683 497 633 547 c 0,78,79
 582 597 582 597 512 597 c 256,64,65
512 341 m 256,80,81
 477 341 477 341 452 366 c 256,82,83
 427 391 427 391 427 427 c 0,84,85
 427 462 427 462 452 487 c 256,86,87
 477 512 477 512 512 512 c 256,88,89
 547 512 547 512 572 487 c 256,90,91
 597 462 597 462 597 427 c 0,92,93
 597 391 597 391 572 366 c 256,94,95
 547 341 547 341 512 341 c 256,80,81
EndSplineSet
Validated: 9
EndChar

StartChar: i
Encoding: 105 105 31
Width: 1024
Flags: W
LayerCount: 2
Fore
SplineSet
785 614 m 1,0,1
 724 674 724 674 542 853 c 0,2,3
 535 860 535 860 528 863 c 0,4,5
 522 866 522 866 512 866 c 1,6,7
 512 866 512 866 512 866 c 1,8,9
 502 866 502 866 496 863 c 0,10,11
 489 860 489 860 482 853 c 0,12,13
 402 773 402 773 243 614 c 1,14,15
 243 614 243 614 243 614 c 257,16,17
 243 614 243 614 243 614 c 1,18,19
 186 560 186 560 157 489 c 256,20,21
 128 418 128 418 128 341 c 0,22,23
 128 265 128 265 156 194 c 0,24,25
 185 123 185 123 239 68 c 0,26,27
 293 14 293 14 364 -14 c 0,28,29
 435 -43 435 -43 512 -43 c 1,30,31
 512 -43 512 -43 512 -43 c 257,32,33
 512 -43 512 -43 512 -43 c 1,34,35
 589 -43 589 -43 660 -14 c 0,36,37
 731 14 731 14 785 68 c 0,38,39
 841 124 841 124 869 195 c 256,40,41
 897 266 897 266 897 340 c 256,42,43
 897 414 897 414 869 485 c 0,44,45
 841 557 841 557 785 614 c 1,46,47
 785 614 785 614 785 614 c 1,0,1
725 128 m 1,48,49
 681 86 681 86 627 65 c 0,50,51
 573 43 573 43 512 43 c 1,52,53
 512 43 512 43 512 43 c 257,54,55
 512 43 512 43 512 43 c 1,56,57
 451 43 451 43 398 65 c 0,58,59
 345 86 345 86 303 128 c 0,60,61
 258 173 258 173 235 227 c 0,62,63
 213 281 213 281 213 341 c 0,64,65
 213 402 213 402 235 455 c 0,66,67
 257 509 257 509 299 550 c 1,68,69
 299 550 299 550 299 550 c 257,70,71
 299 550 299 550 299 550 c 1,72,73
 369 621 369 621 508 764 c 1,74,75
 561 711 561 711 721 550 c 0,76,77
 766 507 766 507 788 453 c 0,78,79
 811 398 811 398 812 341 c 0,80,81
 812 284 812 284 790 228 c 0,82,83
 769 173 769 173 725 128 c 1,84,85
 725 128 725 128 725 128 c 1,48,49
EndSplineSet
Validated: 5
EndChar

StartChar: j
Encoding: 106 106 32
Width: 1024
Flags: W
LayerCount: 2
Fore
SplineSet
1020 444 m 1,0,1
 1017 450 1017 450 982 508 c 256,2,3
 947 566 947 566 882 634 c 0,4,5
 818 701 818 701 725 756 c 256,6,7
 632 811 632 811 512 811 c 256,8,9
 392 811 392 811 299 756 c 256,10,11
 206 701 206 701 142 634 c 0,12,13
 77 566 77 566 42 508 c 256,14,15
 7 450 7 450 4 444 c 0,16,17
 1 434 1 434 1 424 c 0,18,19
 1 415 1 415 4 405 c 0,20,21
 7 401 7 401 42 343 c 0,22,23
 77 286 77 286 142 219 c 0,24,25
 206 152 206 152 299 98 c 0,26,27
 392 43 392 43 512 43 c 256,28,29
 632 43 632 43 725 98 c 256,30,31
 818 153 818 153 882 220 c 0,32,33
 947 287 947 287 982 345 c 256,34,35
 1017 403 1017 403 1020 410 c 0,36,37
 1023 416 1023 416 1023 426 c 0,38,39
 1023 437 1023 437 1020 444 c 1,40,41
 1020 444 1020 444 1020 444 c 1,0,1
512 128 m 1,42,43
 426 128 426 128 355 165 c 256,44,45
 284 202 284 202 230 251 c 0,46,47
 177 301 177 301 141 351 c 0,48,49
 106 401 106 401 90 427 c 1,50,51
 104 452 104 452 139 502 c 0,52,53
 175 552 175 552 229 602 c 0,54,55
 283 651 283 651 354 688 c 0,56,57
 426 725 426 725 512 725 c 256,58,59
 598 725 598 725 669 688 c 256,60,61
 740 651 740 651 794 602 c 0,62,63
 847 552 847 552 883 502 c 0,64,65
 918 452 918 452 934 427 c 1,66,67
 918 401 918 401 883 351 c 0,68,69
 847 301 847 301 794 251 c 0,70,71
 740 202 740 202 669 165 c 256,72,73
 598 128 598 128 512 128 c 1,74,75
 512 128 512 128 512 128 c 1,42,43
512 597 m 256,76,77
 442 597 442 597 391 547 c 0,78,79
 341 497 341 497 341 427 c 0,80,81
 341 356 341 356 391 306 c 0,82,83
 442 256 442 256 512 256 c 256,84,85
 582 256 582 256 633 306 c 0,86,87
 683 356 683 356 683 427 c 0,88,89
 683 497 683 497 633 547 c 0,90,91
 582 597 582 597 512 597 c 256,76,77
512 341 m 256,92,93
 477 341 477 341 452 366 c 256,94,95
 427 391 427 391 427 427 c 0,96,97
 427 462 427 462 452 487 c 256,98,99
 477 512 477 512 512 512 c 256,100,101
 547 512 547 512 572 487 c 256,102,103
 597 462 597 462 597 427 c 0,104,105
 597 391 597 391 572 366 c 256,106,107
 547 341 547 341 512 341 c 256,92,93
EndSplineSet
Validated: 5
EndChar

StartChar: k
Encoding: 107 107 33
Width: 1024
Flags: W
LayerCount: 2
Fore
SplineSet
892 811 m 1,0,1
 849 854 849 854 793 875 c 0,2,3
 738 897 738 897 680 897 c 0,4,5
 623 897 623 897 568 875 c 0,6,7
 513 854 513 854 469 811 c 0,8,9
 374 714 374 714 183 521 c 0,10,11
 177 514 177 514 174 507 c 256,12,13
 171 500 171 500 171 491 c 0,14,15
 171 376 171 376 171 145 c 1,16,17
 142 116 142 116 55 30 c 0,18,19
 43 17 43 17 43 0 c 256,20,21
 43 -17 43 -17 55 -30 c 0,22,23
 62 -36 62 -36 69 -40 c 0,24,25
 76 -43 76 -43 85 -43 c 0,26,27
 95 -43 95 -43 102 -40 c 0,28,29
 109 -36 109 -36 115 -30 c 0,30,31
 153 8 153 8 230 85 c 1,32,33
 317 85 317 85 576 85 c 0,34,35
 586 85 586 85 592 88 c 0,36,37
 599 92 599 92 606 98 c 0,38,39
 701 195 701 195 892 388 c 0,40,41
 937 431 937 431 959 486 c 256,42,43
 981 541 981 541 981 598 c 256,44,45
 981 655 981 655 959 710 c 0,46,47
 937 766 937 766 892 811 c 1,48,49
 892 811 892 811 892 811 c 1,0,1
559 171 m 1,50,51
 498 171 498 171 316 171 c 1,52,53
 337 192 337 192 401 256 c 1,54,55
 462 256 462 256 644 256 c 1,56,57
 623 235 623 235 559 171 c 1,58,59
 559 171 559 171 559 171 c 1,50,51
832 448 m 257,60,61
 832 448 832 448 832 448 c 257,62,63
 832 448 832 448 832 448 c 1,64,65
 798 412 798 412 730 341 c 1,66,67
 730 341 730 341 729 341 c 2,68,69
 729 341 729 341 725 341 c 0,70,71
 645 341 645 341 486 341 c 1,72,73
 543 397 543 397 713 567 c 0,74,75
 725 580 725 580 725 597 c 256,76,77
 725 614 725 614 713 627 c 0,78,79
 700 640 700 640 683 640 c 256,80,81
 666 640 666 640 653 627 c 0,82,83
 553 528 553 528 354 329 c 1,84,85
 354 329 354 329 354 329 c 257,86,87
 354 329 354 329 354 329 c 1,88,89
 321 296 321 296 256 230 c 1,90,91
 256 291 256 291 256 474 c 1,92,93
 325 543 325 543 533 751 c 0,94,95
 565 783 565 783 605 799 c 0,96,97
 644 815 644 815 685 815 c 256,98,99
 726 815 726 815 765 799 c 256,100,101
 804 783 804 783 836 751 c 0,102,103
 867 719 867 719 882 679 c 256,104,105
 897 639 897 639 896 598 c 0,106,107
 896 557 896 557 880 518 c 0,108,109
 864 478 864 478 832 448 c 1,110,111
 832 448 832 448 832 448 c 257,60,61
EndSplineSet
Validated: 37
EndChar

StartChar: l
Encoding: 108 108 34
Width: 1024
Flags: W
LayerCount: 2
Fore
SplineSet
870 849 m 1,0,1
 858 855 858 855 845 852 c 0,2,3
 833 850 833 850 823 841 c 2,4,5
 823 841 823 841 791 826 c 256,6,7
 759 811 759 811 683 811 c 0,8,9
 641 811 641 811 604 824 c 0,10,11
 567 836 567 836 529 849 c 0,12,13
 487 868 487 868 442 882 c 0,14,15
 396 896 396 896 341 896 c 0,16,17
 239 896 239 896 193 872 c 0,18,19
 147 847 147 847 141 841 c 0,20,21
 134 834 134 834 131 827 c 256,22,23
 128 820 128 820 128 811 c 0,24,25
 128 541 128 541 128 0 c 0,26,27
 128 -19 128 -19 140 -31 c 0,28,29
 151 -43 151 -43 171 -43 c 0,30,31
 190 -43 190 -43 202 -31 c 0,32,33
 213 -19 213 -19 213 0 c 0,34,35
 213 92 213 92 213 277 c 1,36,37
 226 284 226 284 258 292 c 0,38,39
 290 299 290 299 341 299 c 0,40,41
 383 299 383 299 420 286 c 256,42,43
 457 273 457 273 495 260 c 0,44,45
 537 244 537 244 582 228 c 0,46,47
 628 213 628 213 683 213 c 0,48,49
 785 213 785 213 831 238 c 0,50,51
 877 262 877 262 883 269 c 0,52,53
 890 275 890 275 893 282 c 256,54,55
 896 289 896 289 896 299 c 0,56,57
 896 470 896 470 896 811 c 0,58,59
 896 823 896 823 890 833 c 0,60,61
 883 843 883 843 870 849 c 1,62,63
 870 849 870 849 870 849 c 1,0,1
811 320 m 1,64,65
 798 314 798 314 766 306 c 0,66,67
 734 299 734 299 683 299 c 0,68,69
 641 299 641 299 604 312 c 0,70,71
 567 324 567 324 529 337 c 0,72,73
 487 356 487 356 442 370 c 0,74,75
 396 384 396 384 341 384 c 0,76,77
 300 384 300 384 268 378 c 0,78,79
 236 373 236 373 213 367 c 1,80,81
 213 508 213 508 213 789 c 1,82,83
 226 796 226 796 258 804 c 0,84,85
 290 811 290 811 341 811 c 0,86,87
 383 811 383 811 420 798 c 256,88,89
 457 785 457 785 495 772 c 0,90,91
 537 753 537 753 582 739 c 0,92,93
 628 725 628 725 683 725 c 0,94,95
 724 725 724 725 756 730 c 0,96,97
 788 736 788 736 811 742 c 1,98,99
 811 601 811 601 811 320 c 1,100,101
 811 320 811 320 811 320 c 1,64,65
EndSplineSet
Validated: 5
EndChar

StartChar: m
Encoding: 109 109 35
Width: 1024
Flags: W
LayerCount: 2
Fore
SplineSet
512 896 m 256,0,1
 414 896 414 896 329 859 c 0,2,3
 243 823 243 823 180 759 c 0,4,5
 116 695 116 695 79 610 c 0,6,7
 43 524 43 524 43 427 c 0,8,9
 43 329 43 329 79 244 c 0,10,11
 116 158 116 158 180 95 c 0,12,13
 243 31 243 31 329 -6 c 0,14,15
 414 -43 414 -43 512 -43 c 256,16,17
 610 -43 610 -43 695 -6 c 0,18,19
 781 31 781 31 844 95 c 0,20,21
 908 158 908 158 945 244 c 0,22,23
 981 329 981 329 981 427 c 0,24,25
 981 524 981 524 945 610 c 0,26,27
 908 695 908 695 844 759 c 0,28,29
 781 823 781 823 695 859 c 0,30,31
 610 896 610 896 512 896 c 256,0,1
892 469 m 1,32,33
 849 469 849 469 721 469 c 1,34,35
 718 514 718 514 709 557 c 256,36,37
 700 600 700 600 686 642 c 0,38,39
 671 683 671 683 651 722 c 256,40,41
 631 761 631 761 606 798 c 1,42,43
 663 783 663 783 713 753 c 0,44,45
 762 722 762 722 800 678 c 0,46,47
 838 635 838 635 861 582 c 0,48,49
 885 529 885 529 892 469 c 1,32,33
388 384 m 1,50,51
 451 384 451 384 640 384 c 1,52,53
 635 341 635 341 625 299 c 256,54,55
 615 257 615 257 599 217 c 256,56,57
 583 177 583 177 563 139 c 0,58,59
 542 102 542 102 516 68 c 1,60,61
 487 102 487 102 465 139 c 0,62,63
 443 177 443 177 427 217 c 256,64,65
 411 257 411 257 401 299 c 256,66,67
 391 341 391 341 388 384 c 1,68,69
 388 384 388 384 388 384 c 1,50,51
388 469 m 1,70,71
 393 513 393 513 403 555 c 0,72,73
 414 597 414 597 430 637 c 0,74,75
 445 677 445 677 466 714 c 0,76,77
 486 751 486 751 512 785 c 1,78,79
 539 750 539 750 561 712 c 0,80,81
 582 674 582 674 598 634 c 0,82,83
 613 594 613 594 623 552 c 0,84,85
 633 511 633 511 636 469 c 1,86,87
 553 469 553 469 388 469 c 1,88,89
 388 469 388 469 388 469 c 1,70,71
414 798 m 1,90,91
 390 761 390 761 371 722 c 256,92,93
 352 683 352 683 338 642 c 0,94,95
 324 600 324 600 315 557 c 256,96,97
 306 514 306 514 303 469 c 1,98,99
 246 469 246 469 132 469 c 1,100,101
 139 529 139 529 162 582 c 0,102,103
 186 635 186 635 223 678 c 0,104,105
 261 722 261 722 309 753 c 0,106,107
 358 783 358 783 414 798 c 1,108,109
 414 798 414 798 414 798 c 1,90,91
132 384 m 1,110,111
 175 384 175 384 303 384 c 1,112,113
 306 339 306 339 315 296 c 256,114,115
 324 253 324 253 338 212 c 0,116,117
 353 171 353 171 373 131 c 0,118,119
 393 92 393 92 418 55 c 1,120,121
 361 70 361 70 311 101 c 0,122,123
 262 132 262 132 224 175 c 256,124,125
 186 218 186 218 163 271 c 0,126,127
 139 325 139 325 132 384 c 1,128,129
 132 384 132 384 132 384 c 1,110,111
610 55 m 1,130,131
 634 92 634 92 653 131 c 0,132,133
 673 171 673 171 687 212 c 256,134,135
 701 253 701 253 711 296 c 256,136,137
 721 339 721 339 725 384 c 1,138,139
 782 384 782 384 896 384 c 1,140,141
 888 325 888 325 863 271 c 0,142,143
 839 218 839 218 801 175 c 256,144,145
 763 132 763 132 715 101 c 0,146,147
 666 70 666 70 610 55 c 1,130,131
EndSplineSet
Validated: 5
EndChar

StartChar: n
Encoding: 110 110 36
Width: 1024
Flags: W
LayerCount: 2
Fore
SplineSet
917 772 m 257,0,1
 917 772 917 772 917 772 c 1,2,3
 879 811 879 811 830 832 c 0,4,5
 780 853 780 853 725 853 c 1,6,7
 725 853 725 853 725 853 c 1,8,9
 671 853 671 853 619 832 c 256,10,11
 567 811 567 811 529 772 c 1,12,13
 529 772 529 772 529 772 c 257,14,15
 529 772 529 772 529 772 c 1,16,17
 523 766 523 766 512 755 c 1,18,19
 508 759 508 759 495 772 c 0,20,21
 457 811 457 811 406 832 c 0,22,23
 356 853 356 853 299 853 c 0,24,25
 244 853 244 853 194 832 c 0,26,27
 145 811 145 811 107 772 c 0,28,29
 68 734 68 734 44 682 c 0,30,31
 21 630 21 630 21 576 c 256,32,33
 21 522 21 522 42 470 c 0,34,35
 64 418 64 418 102 380 c 0,36,37
 227 255 227 255 478 4 c 0,38,39
 484 -2 484 -2 491 -5 c 0,40,41
 498 -9 498 -9 508 -9 c 0,42,43
 517 -9 517 -9 524 -5 c 0,44,45
 531 -2 531 -2 538 4 c 0,46,47
 663 129 663 129 913 380 c 0,48,49
 956 420 956 420 978 471 c 256,50,51
 1000 522 1000 522 1000 576 c 256,52,53
 1000 630 1000 630 980 681 c 0,54,55
 959 732 959 732 917 772 c 1,56,57
 917 772 917 772 917 772 c 257,0,1
858 439 m 1,58,59
 771 353 771 353 512 94 c 1,60,61
 426 180 426 180 166 439 c 0,62,63
 109 497 109 497 109 576 c 256,64,65
 109 655 109 655 166 713 c 0,66,67
 192 741 192 741 228 754 c 0,68,69
 263 768 263 768 299 768 c 0,70,71
 337 768 337 768 372 754 c 0,72,73
 406 741 406 741 435 713 c 0,74,75
 451 697 451 697 482 666 c 0,76,77
 495 653 495 653 512 653 c 256,78,79
 529 653 529 653 542 666 c 0,80,81
 556 682 556 682 585 713 c 1,82,83
 585 713 585 713 585 713 c 257,84,85
 585 713 585 713 585 713 c 1,86,87
 613 738 613 738 648 753 c 0,88,89
 684 768 684 768 725 768 c 1,90,91
 725 768 725 768 725 768 c 257,92,93
 725 768 725 768 725 768 c 1,94,95
 764 768 764 768 798 753 c 0,96,97
 833 738 833 738 862 713 c 1,98,99
 862 713 862 713 862 713 c 1,100,101
 887 684 887 684 902 649 c 256,102,103
 917 614 917 614 917 576 c 256,104,105
 917 538 917 538 902 503 c 0,106,107
 886 468 886 468 858 439 c 1,108,109
 858 439 858 439 858 439 c 1,58,59
EndSplineSet
Validated: 5
EndChar

StartChar: o
Encoding: 111 111 37
Width: 1024
Flags: W
LayerCount: 2
Fore
SplineSet
900 819 m 1,0,1
 900 819 900 819 900 819 c 1,2,3
 939 784 939 784 959 737 c 0,4,5
 979 691 979 691 980 642 c 0,6,7
 980 639 980 639 980 636 c 0,8,9
 980 590 980 590 963 545 c 0,10,11
 946 498 946 498 909 461 c 0,12,13
 824 376 824 376 781 333 c 0,14,15
 771 326 771 326 764 320 c 256,16,17
 757 314 757 314 751 307 c 0,18,19
 716 282 716 282 676 269 c 256,20,21
 636 256 636 256 597 256 c 0,22,23
 540 256 540 256 486 282 c 0,24,25
 431 307 431 307 393 358 c 0,26,27
 385.307692308 368 385.307692308 368 385.307692308 381.550295858 c 0,28,29
 385.307692308 385.615384615 385.307692308 385.615384615 386 390 c 0,30,31
 388 409 388 409 401 418 c 0,32,33
 411 425.692307692 411 425.692307692 424.550295858 425.692307692 c 0,34,35
 428.615384615 425.692307692 428.615384615 425.692307692 433 425 c 0,36,37
 451 422 451 422 461 410 c 0,38,39
 502 352 502 352 572 343 c 256,40,41
 584.6 341.38 584.6 341.38 596.8112 341.38 c 0,42,43
 652.44 341.38 652.44 341.38 700 375 c 0,44,45
 703 379 703 379 708 384 c 0,46,47
 714 389 714 389 717 393 c 0,48,49
 802 478 802 478 845 521 c 0,50,51
 892.020408163 568.020408163 892.020408163 568.020408163 892.020408163 637.111620158 c 0,52,53
 892.020408163 638.551020408 892.020408163 638.551020408 892 640 c 0,54,55
 892 711 892 711 841 759 c 0,56,57
 789 807 789 807 721 807 c 256,58,59
 653 807 653 807 602 759 c 0,60,61
 553 711 553 711 529 687 c 0,62,63
 516 674 516 674 499 674 c 256,64,65
 482 674 482 674 469 687 c 0,66,67
 457 700 457 700 457 717 c 256,68,69
 457 734 457 734 469 747 c 0,70,71
 520 795 520 795 546 819 c 0,72,73
 583 856 583 856 629 874 c 0,74,75
 675 893 675 893 723 893 c 256,76,77
 771 893 771 893 817 874 c 0,78,79
 863 856 863 856 900 819 c 1,0,1
491 166 m 1,80,81
 491 166 491 166 491 166 c 1,82,83
 501.4 177.266666667 501.4 177.266666667 517.808888889 177.266666667 c 0,84,85
 520.333333333 177.266666667 520.333333333 177.266666667 523 177 c 0,86,87
 542 175 542 175 555 162 c 0,88,89
 567 149 567 149 567 132 c 256,90,91
 567 115 567 115 555 102 c 0,92,93
 506 54 506 54 482 30 c 0,94,95
 444 -5 444 -5 398 -24 c 0,96,97
 351 -43 351 -43 303 -43 c 256,98,99
 255 -43 255 -43 208 -24 c 0,100,101
 162 -5 162 -5 124 30 c 0,102,103
 87 67 87 67 68 114 c 0,104,105
 49 160 49 160 48 210 c 0,106,107
 48 212 48 212 48 215 c 0,108,109
 48 261 48 261 65 306 c 0,110,111
 83 354 83 354 119 393 c 0,112,113
 204 478 204 478 247 521 c 0,114,115
 254 527 254 527 261 534 c 0,116,117
 267 540 267 540 273 546 c 0,118,119
 315 578 315 578 364 590 c 0,120,121
 391.695652174 597.347826087 391.695652174 597.347826087 419.071833648 597.347826087 c 0,122,123
 440.130434783 597.347826087 440.130434783 597.347826087 461 593 c 0,124,125
 509 587 509 587 552 562 c 256,126,127
 595 537 595 537 627 495 c 0,128,129
 634.692307692 485 634.692307692 485 634.692307692 471.449704142 c 0,130,131
 634.692307692 467.384615385 634.692307692 467.384615385 634 463 c 0,132,133
 631 445 631 445 619 435 c 0,134,135
 606 426 606 426 588 428 c 0,136,137
 569 431 569 431 559 444 c 0,138,139
 540 473 540 473 512 489 c 0,140,141
 483 506 483 506 448 512 c 0,142,143
 439.25 512.75 439.25 512.75 430.6875 512.75 c 0,144,145
 405 512.75 405 512.75 381 506 c 256,146,147
 349 497 349 497 320 478 c 0,148,149
 317 475 317 475 311 470 c 0,150,151
 306 464 306 464 303 461 c 0,152,153
 218 376 218 376 175 333 c 0,154,155
 127.979591837 285.979591837 127.979591837 285.979591837 127.979591837 216.888379842 c 0,156,157
 127.979591837 215.448979592 127.979591837 215.448979592 128 214 c 0,158,159
 128 142 128 142 179 94 c 256,160,161
 230 46 230 46 299 46 c 0,162,163
 367 46 367 46 418 94 c 0,164,165
 473 148 473 148 491 166 c 1,80,81
EndSplineSet
Validated: 524289
EndChar

StartChar: p
Encoding: 112 112 38
Width: 1024
Flags: W
LayerCount: 2
Fore
SplineSet
811 512 m 1,0,1
 800 512 800 512 768 512 c 1,2,3
 768 544 768 544 768 640 c 0,4,5
 768 693 768 693 748 739 c 0,6,7
 728 786 728 786 693 821 c 256,8,9
 658 856 658 856 611 876 c 0,10,11
 565 896 565 896 512 896 c 256,12,13
 459 896 459 896 413 876 c 0,14,15
 366 856 366 856 331 821 c 256,16,17
 296 786 296 786 276 739 c 0,18,19
 256 693 256 693 256 640 c 0,20,21
 256 597 256 597 256 512 c 1,22,23
 245 512 245 512 213 512 c 0,24,25
 159 512 159 512 122 475 c 256,26,27
 85 438 85 438 85 384 c 0,28,29
 85 284 85 284 85 85 c 0,30,31
 85 31 85 31 122 -6 c 256,32,33
 159 -43 159 -43 213 -43 c 0,34,35
 412 -43 412 -43 811 -43 c 0,36,37
 865 -43 865 -43 902 -6 c 256,38,39
 939 31 939 31 939 85 c 0,40,41
 939 185 939 185 939 384 c 0,42,43
 939 438 939 438 902 475 c 256,44,45
 865 512 865 512 811 512 c 1,46,47
 811 512 811 512 811 512 c 1,0,1
341 640 m 1,48,49
 341 710 341 710 391 761 c 0,50,51
 442 811 442 811 512 811 c 256,52,53
 582 811 582 811 633 761 c 0,54,55
 683 710 683 710 683 640 c 0,56,57
 683 597 683 597 683 512 c 1,58,59
 598 512 598 512 341 512 c 1,60,61
 341 544 341 544 341 640 c 1,62,63
 341 640 341 640 341 640 c 1,48,49
853 85 m 1,64,65
 853 66 853 66 842 54 c 0,66,67
 830 43 830 43 811 43 c 0,68,69
 612 43 612 43 213 43 c 0,70,71
 194 43 194 43 182 54 c 0,72,73
 171 66 171 66 171 85 c 0,74,75
 171 185 171 185 171 384 c 0,76,77
 171 403 171 403 182 415 c 0,78,79
 194 427 194 427 213 427 c 0,80,81
 412 427 412 427 811 427 c 0,82,83
 830 427 830 427 842 415 c 0,84,85
 853 403 853 403 853 384 c 0,86,87
 853 284 853 284 853 85 c 1,88,89
 853 85 853 85 853 85 c 1,64,65
EndSplineSet
Validated: 5
EndChar

StartChar: q
Encoding: 113 113 39
Width: 1024
Flags: W
LayerCount: 2
Fore
SplineSet
256 299 m 1,0,1
 224 299 224 299 128 299 c 0,2,3
 109 299 109 299 97 287 c 256,4,5
 85 275 85 275 85 256 c 256,6,7
 85 237 85 237 97 225 c 256,8,9
 109 213 109 213 128 213 c 0,10,11
 171 213 171 213 256 213 c 0,12,13
 275 213 275 213 287 202 c 0,14,15
 299 190 299 190 299 171 c 0,16,17
 299 128 299 128 299 43 c 0,18,19
 299 23 299 23 310 12 c 0,20,21
 322 0 322 0 341 0 c 0,22,23
 361 0 361 0 372 12 c 0,24,25
 384 23 384 23 384 43 c 0,26,27
 384 86 384 86 384 171 c 0,28,29
 384 225 384 225 347 262 c 256,30,31
 310 299 310 299 256 299 c 1,32,33
 256 299 256 299 256 299 c 1,0,1
768 555 m 1,34,35
 800 555 800 555 896 555 c 0,36,37
 915 555 915 555 927 566 c 0,38,39
 939 578 939 578 939 597 c 0,40,41
 939 617 939 617 927 628 c 0,42,43
 915 640 915 640 896 640 c 0,44,45
 853 640 853 640 768 640 c 0,46,47
 749 640 749 640 737 652 c 0,48,49
 725 663 725 663 725 683 c 0,50,51
 725 726 725 726 725 811 c 0,52,53
 725 830 725 830 714 842 c 0,54,55
 702 853 702 853 683 853 c 0,56,57
 663 853 663 853 652 842 c 0,58,59
 640 830 640 830 640 811 c 0,60,61
 640 768 640 768 640 683 c 0,62,63
 640 628 640 628 677 592 c 0,64,65
 714 555 714 555 768 555 c 1,66,67
 768 555 768 555 768 555 c 1,34,35
896 299 m 1,68,69
 864 299 864 299 768 299 c 0,70,71
 714 299 714 299 677 262 c 256,72,73
 640 225 640 225 640 171 c 0,74,75
 640 128 640 128 640 43 c 0,76,77
 640 23 640 23 652 12 c 0,78,79
 663 0 663 0 683 0 c 0,80,81
 702 0 702 0 714 12 c 0,82,83
 725 23 725 23 725 43 c 0,84,85
 725 86 725 86 725 171 c 0,86,87
 725 190 725 190 737 202 c 0,88,89
 749 213 749 213 768 213 c 0,90,91
 811 213 811 213 896 213 c 0,92,93
 915 213 915 213 927 225 c 256,94,95
 939 237 939 237 939 256 c 256,96,97
 939 275 939 275 927 287 c 256,98,99
 915 299 915 299 896 299 c 1,100,101
 896 299 896 299 896 299 c 1,68,69
341 853 m 1,102,103
 322 853 322 853 310 842 c 0,104,105
 299 830 299 830 299 811 c 0,106,107
 299 768 299 768 299 683 c 0,108,109
 299 663 299 663 287 652 c 0,110,111
 275 640 275 640 256 640 c 0,112,113
 213 640 213 640 128 640 c 0,114,115
 109 640 109 640 97 628 c 0,116,117
 85 617 85 617 85 597 c 0,118,119
 85 578 85 578 97 566 c 0,120,121
 109 555 109 555 128 555 c 0,122,123
 171 555 171 555 256 555 c 0,124,125
 310 555 310 555 347 592 c 0,126,127
 384 628 384 628 384 683 c 0,128,129
 384 726 384 726 384 811 c 0,130,131
 384 830 384 830 372 842 c 0,132,133
 361 853 361 853 341 853 c 1,134,135
 341 853 341 853 341 853 c 1,102,103
EndSplineSet
Validated: 5
EndChar

StartChar: r
Encoding: 114 114 40
Width: 1024
Flags: W
LayerCount: 2
Fore
SplineSet
917 431 m 1,0,1
 908 437 908 437 894 436 c 0,2,3
 880 436 880 436 870 427 c 0,4,5
 837 401 837 401 798 388 c 256,6,7
 759 375 759 375 719 375 c 256,8,9
 679 375 679 375 640 388 c 256,10,11
 601 401 601 401 567 427 c 0,12,13
 524 459 524 459 498 502 c 0,14,15
 472 546 472 546 464 594 c 0,16,17
 457 643 457 643 468 692 c 0,18,19
 480 742 480 742 512 785 c 0,20,21
 518 795 518 795 521 807 c 0,22,23
 523 819 523 819 516 832 c 0,24,25
 510 842 510 842 498 847 c 0,26,27
 486 853 486 853 474 853 c 0,28,29
 397 847 397 847 330 815 c 0,30,31
 262 783 262 783 211 732 c 256,32,33
 160 681 160 681 128 613 c 0,34,35
 96 546 96 546 90 469 c 0,36,37
 88 448 88 448 88 428 c 0,38,39
 88 362 88 362 108 301 c 0,40,41
 134 220 134 220 186 157 c 256,42,43
 238 94 238 94 312 53 c 256,44,45
 386 12 386 12 474 4 c 0,46,47
 483 4 483 4 493 4 c 0,48,49
 502 4 502 4 512 4 c 0,50,51
 586 4 586 4 656 29 c 0,52,53
 727 54 727 54 785 102 c 0,54,55
 819 130 819 130 845 162 c 0,56,57
 871 195 871 195 891 232 c 0,58,59
 910 268 910 268 922 309 c 0,60,61
 934 349 934 349 939 393 c 0,62,63
 939 402 939 402 933 413 c 0,64,65
 927 425 927 425 917 431 c 1,66,67
 917 431 917 431 917 431 c 1,0,1
734 166 m 0,68,69
 683 122 683 122 618 102 c 0,70,71
 554 83 554 83 486 90 c 0,72,73
 416 96 416 96 357 128 c 0,74,75
 298 161 298 161 256 212 c 0,76,77
 214 262 214 262 194 326 c 0,78,79
 173 390 173 390 179 461 c 0,80,81
 184 510 184 510 202 556 c 0,82,83
 221 601 221 601 250 639 c 256,84,85
 279 677 279 677 318 706 c 0,86,87
 356 735 356 735 401 751 c 1,88,89
 382 700 382 700 381 645 c 0,90,91
 380 591 380 591 396 539 c 0,92,93
 411 487 411 487 442 440 c 0,94,95
 474 394 474 394 521 358 c 0,96,97
 556 333 556 333 595 317 c 0,98,99
 635 301 635 301 676 295 c 256,100,101
 717 289 717 289 759 293 c 256,102,103
 801 297 801 297 841 311 c 1,104,105
 821 270 821 270 795 233 c 0,106,107
 769 195 769 195 734 166 c 0,68,69
EndSplineSet
Validated: 41
EndChar

StartChar: s
Encoding: 115 115 41
Width: 1024
Flags: W
LayerCount: 2
Fore
SplineSet
922 299 m 1,0,1
 906 305 906 305 889 299 c 0,2,3
 873 293 873 293 866 277 c 0,4,5
 836 204 836 204 781 151 c 0,6,7
 726 99 726 99 658 71 c 0,8,9
 589 43 589 43 513 43 c 0,10,11
 436 42 436 42 363 73 c 0,12,13
 289 103 289 103 236 158 c 0,14,15
 184 213 184 213 156 281 c 0,16,17
 129 349 129 349 128 426 c 0,18,19
 127 502 127 502 158 576 c 0,20,21
 187 643 187 643 239 696 c 0,22,23
 291 748 291 748 358 777 c 0,24,25
 374 783 374 783 380 800 c 0,26,27
 386 816 386 816 380 832 c 0,28,29
 373 848 373 848 356 856 c 0,30,31
 340 864 340 864 324 858 c 0,32,33
 283 840 283 840 246 815 c 0,34,35
 209 789 209 789 178 758 c 0,36,37
 148 726 148 726 123 689 c 0,38,39
 99 652 99 652 81 610 c 0,40,41
 44 523 44 523 44 432 c 0,42,43
 44 430 44 430 44 427 c 0,44,45
 44 334 44 334 78 251 c 0,46,47
 112 167 112 167 176 100 c 0,48,49
 241 33 241 33 329 -4 c 0,50,51
 373 -23 373 -23 420 -33 c 256,52,53
 467 -43 467 -43 512 -43 c 0,54,55
 581 -43 581 -43 647 -23 c 0,56,57
 712 -4 712 -4 769 33 c 256,58,59
 826 70 826 70 871 123 c 256,60,61
 916 176 916 176 943 243 c 0,62,63
 949 259 949 259 943 276 c 0,64,65
 938 292 938 292 922 299 c 1,66,67
 922 299 922 299 922 299 c 1,0,1
512 896 m 1,68,69
 493 896 493 896 481 884 c 0,70,71
 469 873 469 873 469 853 c 0,72,73
 469 711 469 711 469 427 c 0,74,75
 469 407 469 407 481 396 c 0,76,77
 493 384 493 384 512 384 c 0,78,79
 654 384 654 384 939 384 c 0,80,81
 958 384 958 384 970 396 c 0,82,83
 981 407 981 407 981 427 c 0,84,85
 981 524 981 524 945 610 c 0,86,87
 908 695 908 695 844 759 c 0,88,89
 781 823 781 823 695 859 c 0,90,91
 610 896 610 896 512 896 c 1,92,93
 512 896 512 896 512 896 c 1,68,69
555 469 m 1,94,95
 555 553 555 553 555 806 c 1,96,97
 622 798 622 798 681 769 c 0,98,99
 739 740 739 740 784 696 c 0,100,101
 829 651 829 651 857 593 c 256,102,103
 885 535 885 535 892 469 c 1,104,105
 780 469 780 469 555 469 c 1,94,95
EndSplineSet
Validated: 37
EndChar

StartChar: t
Encoding: 116 116 42
Width: 1024
Flags: W
LayerCount: 2
Fore
SplineSet
512 555 m 256,0,1
 458 555 458 555 421 518 c 256,2,3
 384 481 384 481 384 427 c 0,4,5
 384 372 384 372 421 336 c 0,6,7
 458 299 458 299 512 299 c 256,8,9
 566 299 566 299 603 336 c 0,10,11
 640 372 640 372 640 427 c 0,12,13
 640 481 640 481 603 518 c 256,14,15
 566 555 566 555 512 555 c 256,0,1
512 384 m 256,16,17
 493 384 493 384 481 396 c 0,18,19
 469 407 469 407 469 427 c 0,20,21
 469 446 469 446 481 458 c 0,22,23
 493 469 493 469 512 469 c 256,24,25
 531 469 531 469 543 458 c 0,26,27
 555 446 555 446 555 427 c 0,28,29
 555 407 555 407 543 396 c 0,30,31
 531 384 531 384 512 384 c 256,16,17
845 759 m 1,32,33
 832 772 832 772 815 772 c 256,34,35
 798 772 798 772 785 759 c 0,36,37
 772 747 772 747 772 730 c 256,38,39
 772 713 772 713 785 700 c 0,40,41
 841 644 841 644 869 573 c 256,42,43
 897 502 897 502 897 429 c 0,44,45
 897 355 897 355 869 285 c 0,46,47
 841 214 841 214 785 158 c 0,48,49
 772 145 772 145 772 128 c 256,50,51
 772 111 772 111 785 98 c 0,52,53
 791 92 791 92 800 88 c 0,54,55
 809 85 809 85 815 85 c 256,56,57
 821 85 821 85 830 88 c 0,58,59
 838 92 838 92 845 98 c 0,60,61
 914 165 914 165 948 251 c 256,62,63
 982 337 982 337 982 427 c 256,64,65
 982 517 982 517 948 604 c 256,66,67
 914 691 914 691 845 759 c 1,68,69
 845 759 845 759 845 759 c 1,32,33
239 700 m 1,70,71
 252 713 252 713 252 730 c 256,72,73
 252 747 252 747 239 759 c 0,74,75
 226 772 226 772 209 772 c 256,76,77
 192 772 192 772 179 759 c 0,78,79
 110 691 110 691 76 604 c 256,80,81
 42 517 42 517 42 426 c 0,82,83
 42 336 42 336 76 249 c 0,84,85
 110 163 110 163 179 94 c 0,86,87
 186 87 186 87 194 84 c 0,88,89
 203 81 203 81 209 81 c 256,90,91
 215 81 215 81 224 84 c 256,92,93
 233 87 233 87 239 94 c 0,94,95
 252 107 252 107 252 124 c 256,96,97
 252 141 252 141 239 154 c 0,98,99
 183 210 183 210 155 281 c 256,100,101
 127 352 127 352 127 426 c 0,102,103
 127 501 127 501 155 572 c 0,104,105
 183 644 183 644 239 700 c 1,106,107
 239 700 239 700 239 700 c 1,70,71
299 427 m 1,108,109
 299 468 299 468 315 508 c 0,110,111
 331 547 331 547 363 576 c 1,112,113
 363 576 363 576 363 576 c 257,114,115
 363 576 363 576 363 576 c 1,116,117
 375 589 375 589 374 606 c 0,118,119
 372 623 372 623 363 636 c 0,120,121
 350 649 350 649 333 649 c 256,122,123
 316 649 316 649 303 636 c 1,124,125
 303 636 303 636 303 636 c 257,126,127
 303 636 303 636 303 636 c 1,128,129
 260 593 260 593 238 537 c 0,130,131
 217 482 217 482 217 424 c 0,132,133
 217 367 217 367 238 312 c 0,134,135
 260 257 260 257 303 213 c 0,136,137
 309 207 309 207 318 204 c 0,138,139
 326 201 326 201 333 201 c 0,140,141
 339 201 339 201 348 204 c 0,142,143
 356 207 356 207 363 213 c 0,144,145
 375 226 375 226 375 243 c 256,146,147
 375 260 375 260 363 273 c 0,148,149
 331 305 331 305 315 345 c 256,150,151
 299 385 299 385 299 427 c 1,152,153
 299 427 299 427 299 427 c 1,108,109
721 636 m 1,154,155
 708 649 708 649 691 649 c 256,156,157
 674 649 674 649 661 636 c 0,158,159
 649 623 649 623 649 606 c 256,160,161
 649 589 649 589 661 576 c 0,162,163
 693 546 693 546 709 507 c 0,164,165
 725 467 725 467 726 426 c 0,166,167
 726 386 726 386 711 347 c 256,168,169
 696 308 696 308 666 277 c 0,170,171
 662 274 662 274 659 271 c 256,172,173
 656 268 656 268 653 265 c 0,174,175
 646 249 646 249 652 232 c 0,176,177
 657 215 657 215 670 209 c 0,178,179
 673 206 673 206 678 206 c 0,180,181
 684 205 684 205 687 205 c 0,182,183
 697 205 697 205 704 208 c 0,184,185
 710 211 710 211 717 218 c 0,186,187
 763 261 763 261 786 315 c 0,188,189
 810 370 810 370 810 426 c 0,190,191
 811 483 811 483 788 538 c 0,192,193
 766 593 766 593 721 636 c 1,194,195
 721 636 721 636 721 636 c 1,154,155
EndSplineSet
Validated: 37
EndChar

StartChar: u
Encoding: 117 117 43
Width: 1024
Flags: W
LayerCount: 2
Fore
SplineSet
512 597 m 256,0,1
 442 597 442 597 391 547 c 0,2,3
 341 497 341 497 341 427 c 0,4,5
 341 356 341 356 391 306 c 0,6,7
 442 256 442 256 512 256 c 256,8,9
 582 256 582 256 633 306 c 0,10,11
 683 356 683 356 683 427 c 0,12,13
 683 497 683 497 633 547 c 0,14,15
 582 597 582 597 512 597 c 256,0,1
512 341 m 256,16,17
 477 341 477 341 452 366 c 256,18,19
 427 391 427 391 427 427 c 0,20,21
 427 462 427 462 452 487 c 256,22,23
 477 512 477 512 512 512 c 256,24,25
 547 512 547 512 572 487 c 256,26,27
 597 462 597 462 597 427 c 0,28,29
 597 391 597 391 572 366 c 256,30,31
 547 341 547 341 512 341 c 256,16,17
866 282 m 1,32,33
 869 288 869 288 876 294 c 0,34,35
 883 299 883 299 896 299 c 0,36,37
 950 299 950 299 987 336 c 0,38,39
 1024 372 1024 372 1024 427 c 0,40,41
 1024 481 1024 481 987 518 c 256,42,43
 950 555 950 555 896 555 c 0,44,45
 893 555 893 555 887 555 c 256,46,47
 881 555 881 555 875 558 c 256,48,49
 869 561 869 561 866 567 c 0,50,51
 866 571 866 571 865 572 c 0,52,53
 865 573 865 573 862 576 c 0,54,55
 859 582 859 582 860 592 c 0,56,57
 861 601 861 601 870 610 c 0,58,59
 909 649 909 649 909 701 c 0,60,61
 909 754 909 754 870 789 c 1,62,63
 870 789 870 789 870 789 c 257,64,65
 870 789 870 789 870 789 c 257,66,67
 870 789 870 789 870 789 c 1,68,69
 851 809 851 809 829 818 c 0,70,71
 806 828 806 828 781 828 c 1,72,73
 781 828 781 828 781 828 c 257,74,75
 781 828 781 828 781 828 c 1,76,77
 755 828 755 828 730 818 c 0,78,79
 706 809 706 809 687 789 c 0,80,81
 681 783 681 783 672 783 c 0,82,83
 663 782 663 782 657 785 c 0,84,85
 651 785 651 785 646 793 c 0,86,87
 640 801 640 801 640 811 c 0,88,89
 640 865 640 865 603 902 c 256,90,91
 566 939 566 939 512 939 c 256,92,93
 458 939 458 939 421 902 c 256,94,95
 384 865 384 865 384 811 c 0,96,97
 384 808 384 808 384 802 c 256,98,99
 384 796 384 796 381 790 c 256,100,101
 378 784 378 784 371 781 c 0,102,103
 368 781 368 781 367 780 c 0,104,105
 366 780 366 780 363 777 c 0,106,107
 356 773 356 773 347 776 c 256,108,109
 338 779 338 779 329 785 c 0,110,111
 290 823 290 823 237 823 c 0,112,113
 185 823 185 823 149 785 c 0,114,115
 111 747 111 747 112 694 c 0,116,117
 112 640 112 640 154 602 c 0,118,119
 160 595 160 595 160 586 c 0,120,121
 161 577 161 577 158 567 c 0,122,123
 155 561 155 561 146 556 c 0,124,125
 138 550 138 550 128 550 c 0,126,127
 74 550 74 550 37 514 c 0,128,129
 0 477 0 477 0 422 c 0,130,131
 0 368 0 368 37 331 c 256,132,133
 74 294 74 294 128 294 c 0,134,135
 131 294 131 294 137 294 c 0,136,137
 146 294 146 294 152 289 c 0,138,139
 159 284 159 284 162 277 c 0,140,141
 165 271 165 271 164 262 c 256,142,143
 163 253 163 253 154 243 c 0,144,145
 134 224 134 224 125 202 c 0,146,147
 115 179 115 179 115 154 c 0,148,149
 115 128 115 128 125 106 c 0,150,151
 134 83 134 83 154 64 c 1,152,153
 154 64 154 64 154 64 c 257,154,155
 154 64 154 64 154 64 c 1,156,157
 192 26 192 26 246 26 c 0,158,159
 299 27 299 27 337 68 c 0,160,161
 343 75 343 75 352 76 c 0,162,163
 362 76 362 76 371 73 c 0,164,165
 381 69 381 69 384 62 c 0,166,167
 388 55 388 55 388 43 c 0,168,169
 388 -12 388 -12 425 -48 c 0,170,171
 462 -85 462 -85 516 -85 c 0,172,173
 571 -85 571 -85 608 -48 c 0,174,175
 644 -12 644 -12 644 43 c 0,176,177
 644 46 644 46 644 51 c 0,178,179
 644 61 644 61 650 67 c 0,180,181
 655 74 655 74 661 77 c 0,182,183
 668 80 668 80 677 79 c 256,184,185
 686 78 686 78 695 68 c 0,186,187
 734 30 734 30 787 30 c 0,188,189
 839 30 839 30 875 68 c 0,190,191
 913 107 913 107 912 160 c 0,192,193
 912 213 912 213 870 252 c 0,194,195
 867 258 867 258 865 266 c 0,196,197
 863 275 863 275 866 282 c 1,198,199
 866 282 866 282 866 282 c 257,200,201
 866 282 866 282 866 282 c 1,32,33
789 316 m 1,202,203
 777 284 777 284 783 250 c 0,204,205
 789 217 789 217 815 188 c 0,206,207
 821 181 821 181 824 174 c 0,208,209
 828 167 828 167 828 158 c 0,210,211
 828 148 828 148 824 141 c 0,212,213
 821 134 821 134 815 128 c 256,214,215
 809 122 809 122 802 118 c 0,216,217
 795 115 795 115 785 115 c 1,218,219
 785 115 785 115 785 115 c 257,220,221
 785 115 785 115 785 115 c 1,222,223
 775 115 775 115 768 119 c 256,224,225
 761 123 761 123 751 132 c 0,226,227
 725 158 725 158 692 164 c 256,228,229
 659 170 659 170 627 154 c 0,230,231
 595 141 595 141 577 112 c 256,232,233
 559 83 559 83 559 51 c 0,234,235
 559 48 559 48 559 43 c 0,236,237
 559 23 559 23 547 12 c 0,238,239
 535 0 535 0 516 0 c 256,240,241
 497 0 497 0 485 12 c 0,242,243
 474 23 474 23 474 43 c 2,244,245
 474 43 474 43 474 45 c 256,246,247
 474 47 474 47 474 47 c 2,248,249
 474 82 474 82 453 109 c 0,250,251
 433 137 433 137 401 149 c 0,252,253
 391 156 391 156 379 157 c 256,254,255
 367 158 367 158 354 158 c 0,256,257
 332 158 332 158 310 149 c 0,258,259
 289 140 289 140 273 124 c 0,260,261
 260 111 260 111 243 111 c 256,262,263
 226 111 226 111 213 124 c 1,264,265
 213 124 213 124 213 124 c 257,266,267
 213 124 213 124 213 124 c 257,268,269
 213 124 213 124 213 124 c 1,270,271
 207 130 207 130 204 137 c 256,272,273
 201 144 201 144 201 154 c 0,274,275
 201 163 201 163 204 170 c 0,276,277
 208 178 208 178 218 188 c 0,278,279
 243 213 243 213 249 246 c 256,280,281
 255 279 255 279 239 311 c 0,282,283
 226 343 226 343 197 362 c 0,284,285
 169 380 169 380 137 380 c 0,286,287
 134 380 134 380 128 380 c 0,288,289
 109 380 109 380 97 392 c 0,290,291
 85 403 85 403 85 422 c 0,292,293
 85 442 85 442 97 453 c 0,294,295
 109 465 109 465 128 465 c 2,296,297
 128 465 128 465 130 465 c 256,298,299
 132 465 132 465 132 465 c 2,300,301
 167 465 167 465 195 485 c 0,302,303
 222 506 222 506 235 538 c 0,304,305
 247 570 247 570 241 603 c 0,306,307
 235 637 235 637 209 666 c 0,308,309
 196 678 196 678 196 696 c 0,310,311
 196 713 196 713 209 725 c 0,312,313
 222 738 222 738 240 737 c 0,314,315
 257 737 257 737 273 721 c 0,316,317
 295 699 295 699 327 693 c 0,318,319
 359 686 359 686 388 695 c 0,320,321
 391 695 391 695 395 696 c 0,322,323
 398 697 398 697 401 700 c 0,324,325
 433 713 433 713 451 741 c 0,326,327
 469 770 469 770 469 802 c 0,328,329
 469 805 469 805 469 811 c 0,330,331
 469 830 469 830 481 842 c 0,332,333
 493 853 493 853 512 853 c 256,334,335
 531 853 531 853 543 841 c 256,336,337
 555 829 555 829 555 806 c 0,338,339
 555 771 555 771 573 744 c 256,340,341
 591 717 591 717 623 704 c 256,342,343
 655 691 655 691 688 698 c 0,344,345
 722 704 722 704 751 730 c 0,346,347
 757 736 757 736 764 739 c 256,348,349
 771 742 771 742 781 742 c 1,350,351
 781 742 781 742 781 742 c 1,352,353
 790 742 790 742 797 739 c 256,354,355
 804 736 804 736 811 730 c 1,356,357
 811 730 811 730 811 730 c 257,358,359
 811 730 811 730 811 730 c 1,360,361
 823 717 823 717 823 699 c 0,362,363
 822 682 822 682 806 666 c 0,364,365
 784 643 784 643 778 611 c 0,366,367
 771 579 771 579 781 550 c 0,368,369
 781 547 781 547 782 544 c 0,370,371
 782 541 782 541 785 538 c 0,372,373
 798 506 798 506 827 487 c 0,374,375
 855 469 855 469 887 469 c 0,376,377
 890 469 890 469 896 469 c 0,378,379
 915 469 915 469 927 458 c 0,380,381
 939 446 939 446 939 427 c 0,382,383
 939 407 939 407 926 396 c 0,384,385
 914 384 914 384 892 384 c 0,386,387
 860 384 860 384 831 366 c 256,388,389
 802 348 802 348 789 316 c 1,390,391
 789 316 789 316 789 316 c 1,202,203
EndSplineSet
Validated: 37
EndChar

StartChar: v
Encoding: 118 118 44
Width: 1024
Flags: W
LayerCount: 2
Fore
SplineSet
870 764 m 1,0,1
 785 796 785 796 529 892 c 0,2,3
 523 895 523 895 514 895 c 0,4,5
 506 895 506 895 499 892 c 0,6,7
 385 849 385 849 158 764 c 0,8,9
 145 761 145 761 136 749 c 0,10,11
 128 738 128 738 128 725 c 0,12,13
 128 626 128 626 128 427 c 0,14,15
 128 323 128 323 183 238 c 0,16,17
 238 154 238 154 305 93 c 0,18,19
 372 33 372 33 430 -1 c 0,20,21
 489 -35 489 -35 495 -38 c 0,22,23
 498 -42 498 -42 502 -42 c 0,24,25
 506 -43 506 -43 512 -43 c 256,26,27
 518 -43 518 -43 522 -42 c 0,28,29
 526 -42 526 -42 529 -38 c 0,30,31
 535 -35 535 -35 594 -1 c 0,32,33
 652 33 652 33 719 93 c 0,34,35
 786 154 786 154 841 238 c 0,36,37
 896 323 896 323 896 427 c 0,38,39
 896 526 896 526 896 725 c 0,40,41
 896 738 896 738 888 749 c 0,42,43
 880 761 880 761 870 764 c 1,44,45
 870 764 870 764 870 764 c 1,0,1
811 427 m 1,46,47
 811 355 811 355 774 292 c 0,48,49
 737 230 737 230 687 181 c 256,50,51
 637 132 637 132 587 97 c 0,52,53
 538 63 538 63 512 47 c 1,54,55
 486 61 486 61 437 95 c 0,56,57
 387 128 387 128 337 178 c 0,58,59
 287 227 287 227 250 290 c 256,60,61
 213 353 213 353 213 427 c 0,62,63
 213 516 213 516 213 695 c 1,64,65
 288 723 288 723 512 806 c 1,66,67
 587 778 587 778 811 695 c 1,68,69
 811 628 811 628 811 427 c 1,70,71
 811 427 811 427 811 427 c 1,46,47
EndSplineSet
Validated: 5
EndChar

StartChar: w
Encoding: 119 119 45
Width: 1024
Flags: W
LayerCount: 2
Fore
SplineSet
981 555 m 1,0,1
 978 567 978 567 969 574 c 256,2,3
 960 581 960 581 947 585 c 0,4,5
 856 598 856 598 674 623 c 1,6,7
 643 685 643 685 550 870 c 0,8,9
 541 893 541 893 512 893 c 256,10,11
 483 893 483 893 474 870 c 0,12,13
 433 789 433 789 350 627 c 1,14,15
 283 617 283 617 81 585 c 0,16,17
 68 585 68 585 58 576 c 0,18,19
 49 567 49 567 43 555 c 0,20,21
 41 548 41 548 41 542 c 256,22,23
 41 536 41 536 43 530 c 0,24,25
 46 518 46 518 55 512 c 0,26,27
 121 448 121 448 252 320 c 1,28,29
 240 252 240 252 205 47 c 0,30,31
 202 34 202 34 207 22 c 0,32,33
 212 11 212 11 222 4 c 0,34,35
 231 -2 231 -2 244 -4 c 0,36,37
 246 -4 246 -4 249 -4 c 0,38,39
 259 -5 259 -5 269 0 c 0,40,41
 350 43 350 43 512 128 c 1,42,43
 573 96 573 96 755 0 c 0,44,45
 762 0 762 0 766 0 c 256,46,47
 770 0 770 0 777 0 c 0,48,49
 783 0 783 0 790 2 c 0,50,51
 796 5 796 5 802 9 c 0,52,53
 812 15 812 15 817 27 c 0,54,55
 822 38 822 38 819 51 c 0,56,57
 803 142 803 142 772 324 c 1,58,59
 821 372 821 372 969 516 c 0,60,61
 978 523 978 523 981 534 c 0,62,63
 983 539 983 539 983 544 c 0,64,65
 983 550 983 550 981 555 c 1,66,67
 981 555 981 555 981 555 c 1,0,1
695 367 m 1,68,69
 689 357 689 357 686 347 c 0,70,71
 683 338 683 338 683 329 c 0,72,73
 694 259 694 259 717 119 c 1,74,75
 670 144 670 144 529 218 c 0,76,77
 519 224 519 224 510 224 c 0,78,79
 500 224 500 224 491 218 c 0,80,81
 428 185 428 185 303 119 c 1,82,83
 313 172 313 172 341 329 c 0,84,85
 341 338 341 338 338 347 c 0,86,87
 335 357 335 357 329 367 c 0,88,89
 278 415 278 415 175 512 c 1,90,91
 227 520 227 520 384 542 c 0,92,93
 394 542 394 542 403 550 c 0,94,95
 412 557 412 557 418 563 c 0,96,97
 449 627 449 627 512 755 c 1,98,99
 536 708 536 708 606 567 c 0,100,101
 609 558 609 558 618 552 c 256,102,103
 627 546 627 546 640 546 c 0,104,105
 710 536 710 536 849 516 c 1,106,107
 810 479 810 479 695 367 c 1,108,109
 695 367 695 367 695 367 c 1,68,69
EndSplineSet
Validated: 9
EndChar

StartChar: x
Encoding: 120 120 46
Width: 1024
Flags: W
LayerCount: 2
Fore
SplineSet
512 683 m 256,0,1
 459 683 459 683 413 662 c 0,2,3
 366 642 366 642 331 607 c 0,4,5
 296 573 296 573 276 526 c 256,6,7
 256 479 256 479 256 427 c 0,8,9
 256 374 256 374 276 327 c 0,10,11
 296 281 296 281 331 246 c 256,12,13
 366 211 366 211 413 191 c 0,14,15
 459 171 459 171 512 171 c 256,16,17
 565 171 565 171 611 191 c 0,18,19
 658 211 658 211 693 246 c 256,20,21
 728 281 728 281 748 327 c 0,22,23
 768 374 768 374 768 427 c 0,24,25
 768 479 768 479 748 526 c 256,26,27
 728 573 728 573 693 607 c 0,28,29
 658 642 658 642 611 662 c 0,30,31
 565 683 565 683 512 683 c 256,0,1
512 256 m 256,32,33
 442 256 442 256 391 306 c 0,34,35
 341 356 341 356 341 427 c 0,36,37
 341 497 341 497 391 547 c 0,38,39
 442 597 442 597 512 597 c 256,40,41
 582 597 582 597 633 547 c 0,42,43
 683 497 683 497 683 427 c 0,44,45
 683 356 683 356 633 306 c 0,46,47
 582 256 582 256 512 256 c 256,32,33
512 768 m 256,48,49
 531 768 531 768 543 780 c 0,50,51
 555 791 555 791 555 811 c 0,52,53
 555 839 555 839 555 896 c 0,54,55
 555 915 555 915 543 927 c 256,56,57
 531 939 531 939 512 939 c 256,58,59
 493 939 493 939 481 927 c 256,60,61
 469 915 469 915 469 896 c 0,62,63
 469 868 469 868 469 811 c 0,64,65
 469 791 469 791 481 780 c 0,66,67
 493 768 493 768 512 768 c 256,48,49
512 85 m 256,68,69
 493 85 493 85 481 74 c 0,70,71
 469 62 469 62 469 43 c 0,72,73
 469 14 469 14 469 -43 c 0,74,75
 469 -62 469 -62 481 -74 c 0,76,77
 493 -85 493 -85 512 -85 c 256,78,79
 531 -85 531 -85 543 -74 c 0,80,81
 555 -62 555 -62 555 -43 c 0,82,83
 555 -14 555 -14 555 43 c 0,84,85
 555 62 555 62 543 74 c 0,86,87
 531 85 531 85 512 85 c 256,68,69
209 670 m 1,88,89
 215 663 215 663 224 660 c 256,90,91
 233 657 233 657 239 657 c 256,92,93
 245 657 245 657 254 660 c 0,94,95
 262 663 262 663 269 670 c 0,96,97
 282 683 282 683 282 700 c 256,98,99
 282 717 282 717 269 730 c 0,100,101
 249 750 249 750 209 789 c 0,102,103
 196 802 196 802 179 802 c 256,104,105
 162 802 162 802 149 789 c 0,106,107
 137 777 137 777 137 760 c 0,108,109
 137 742 137 742 149 730 c 0,110,111
 169 710 169 710 209 670 c 1,112,113
 209 670 209 670 209 670 c 1,88,89
815 183 m 1,114,115
 802 196 802 196 785 196 c 256,116,117
 768 196 768 196 755 183 c 0,118,119
 742 171 742 171 742 154 c 256,120,121
 742 137 742 137 755 124 c 0,122,123
 775 104 775 104 815 64 c 0,124,125
 821 58 821 58 830 54 c 0,126,127
 838 51 838 51 845 51 c 0,128,129
 851 51 851 51 860 54 c 0,130,131
 868 58 868 58 875 64 c 0,132,133
 887 77 887 77 887 94 c 256,134,135
 887 111 887 111 875 124 c 0,136,137
 855 144 855 144 815 183 c 1,138,139
 815 183 815 183 815 183 c 1,114,115
171 427 m 0,140,141
 171 446 171 446 159 458 c 0,142,143
 147 469 147 469 128 469 c 0,144,145
 100 469 100 469 43 469 c 0,146,147
 23 469 23 469 12 458 c 0,148,149
 0 446 0 446 0 427 c 0,150,151
 0 407 0 407 12 396 c 0,152,153
 23 384 23 384 43 384 c 0,154,155
 71 384 71 384 128 384 c 0,156,157
 147 384 147 384 159 396 c 0,158,159
 171 407 171 407 171 427 c 0,140,141
981 469 m 1,160,161
 960 469 960 469 896 469 c 0,162,163
 877 469 877 469 865 458 c 0,164,165
 853 446 853 446 853 427 c 0,166,167
 853 407 853 407 865 396 c 0,168,169
 877 384 877 384 896 384 c 0,170,171
 924 384 924 384 981 384 c 0,172,173
 1001 384 1001 384 1012 396 c 0,174,175
 1024 407 1024 407 1024 427 c 0,176,177
 1024 446 1024 446 1012 458 c 0,178,179
 1001 469 1001 469 981 469 c 1,180,181
 981 469 981 469 981 469 c 1,160,161
209 183 m 1,182,183
 194 168 194 168 149 124 c 0,184,185
 137 111 137 111 137 94 c 256,186,187
 137 77 137 77 149 64 c 0,188,189
 156 58 156 58 164 54 c 0,190,191
 173 51 173 51 179 51 c 0,192,193
 186 51 186 51 194 54 c 0,194,195
 203 58 203 58 209 64 c 0,196,197
 229 84 229 84 269 124 c 0,198,199
 282 137 282 137 282 154 c 256,200,201
 282 171 282 171 269 183 c 0,202,203
 256 196 256 196 239 196 c 256,204,205
 222 196 222 196 209 183 c 1,206,207
 209 183 209 183 209 183 c 1,182,183
785 657 m 1,208,209
 795 657 795 657 802 660 c 256,210,211
 809 663 809 663 815 670 c 0,212,213
 835 690 835 690 875 730 c 0,214,215
 887 742 887 742 887 760 c 0,216,217
 887 777 887 777 875 789 c 0,218,219
 862 802 862 802 845 802 c 256,220,221
 828 802 828 802 815 789 c 0,222,223
 795 769 795 769 755 730 c 0,224,225
 742 717 742 717 742 700 c 256,226,227
 742 683 742 683 755 670 c 0,228,229
 758 663 758 663 767 660 c 0,230,231
 775 657 775 657 785 657 c 1,232,233
 785 657 785 657 785 657 c 1,208,209
EndSplineSet
Validated: 5
EndChar

StartChar: y
Encoding: 121 121 47
Width: 1024
Flags: W
LayerCount: 2
Fore
SplineSet
1020 700 m 1,0,1
 1017 706 1017 706 1011 712 c 256,2,3
 1005 718 1005 718 998 721 c 0,4,5
 995 724 995 724 990 724 c 0,6,7
 985 725 985 725 981 725 c 0,8,9
 896 725 896 725 725 725 c 0,10,11
 706 725 706 725 694 714 c 0,12,13
 683 702 683 702 683 683 c 0,14,15
 683 663 683 663 694 652 c 0,16,17
 706 640 706 640 725 640 c 0,18,19
 776 640 776 640 879 640 c 1,20,21
 803 564 803 564 576 337 c 1,22,23
 530 383 530 383 393 521 c 0,24,25
 380 533 380 533 363 533 c 256,26,27
 346 533 346 533 333 521 c 0,28,29
 226 414 226 414 13 201 c 0,30,31
 0 188 0 188 0 171 c 256,32,33
 0 154 0 154 13 141 c 0,34,35
 19 134 19 134 26 131 c 256,36,37
 33 128 33 128 43 128 c 0,38,39
 52 128 52 128 59 131 c 256,40,41
 66 134 66 134 73 141 c 0,42,43
 170 238 170 238 363 431 c 1,44,45
 409 385 409 385 546 247 c 0,46,47
 559 235 559 235 576 235 c 256,48,49
 593 235 593 235 606 247 c 0,50,51
 717 358 717 358 939 580 c 1,52,53
 939 542 939 542 939 427 c 0,54,55
 939 407 939 407 950 396 c 0,56,57
 962 384 962 384 981 384 c 0,58,59
 1001 384 1001 384 1012 396 c 0,60,61
 1024 407 1024 407 1024 427 c 0,62,63
 1024 512 1024 512 1024 683 c 0,64,65
 1024 686 1024 686 1024 692 c 0,66,67
 1023 697 1023 697 1020 700 c 1,68,69
 1020 700 1020 700 1020 700 c 1,0,1
EndSplineSet
Validated: 9
EndChar

StartChar: z
Encoding: 122 122 48
Width: 1024
Flags: W
LayerCount: 2
Fore
SplineSet
465 892 m 1,0,1
 372 884 372 884 292 845 c 0,2,3
 211 806 211 806 150 745 c 0,4,5
 88 683 88 683 49 603 c 0,6,7
 10 522 10 522 0 431 c 0,8,9
 0 421 0 421 3 412 c 256,10,11
 6 403 6 403 13 397 c 0,12,13
 16 390 16 390 24 387 c 0,14,15
 33 384 33 384 43 384 c 0,16,17
 185 384 185 384 469 384 c 1,18,19
 469 320 469 320 469 128 c 0,20,21
 469 58 469 58 519 7 c 0,22,23
 570 -43 570 -43 640 -43 c 256,24,25
 710 -43 710 -43 761 7 c 0,26,27
 811 58 811 58 811 128 c 0,28,29
 811 147 811 147 799 159 c 256,30,31
 787 171 787 171 768 171 c 256,32,33
 749 171 749 171 737 159 c 256,34,35
 725 147 725 147 725 128 c 0,36,37
 725 93 725 93 700 68 c 256,38,39
 675 43 675 43 640 43 c 256,40,41
 605 43 605 43 580 68 c 256,42,43
 555 93 555 93 555 128 c 0,44,45
 555 213 555 213 555 384 c 1,46,47
 662 384 662 384 981 384 c 0,48,49
 991 384 991 384 1000 387 c 0,50,51
 1008 390 1008 390 1011 397 c 0,52,53
 1014 403 1014 403 1019 412 c 256,54,55
 1024 421 1024 421 1024 431 c 0,56,57
 1014 537 1014 537 965 626 c 0,58,59
 917 715 917 715 841 778 c 256,60,61
 765 841 765 841 668 872 c 0,62,63
 596 895 596 895 520 895 c 0,64,65
 493 895 493 895 465 892 c 1,66,67
 465 892 465 892 465 892 c 1,0,1
512 469 m 1,68,69
 408 469 408 469 94 469 c 1,70,71
 107 538 107 538 141 597 c 0,72,73
 174 656 174 656 224 701 c 256,74,75
 274 746 274 746 336 774 c 0,76,77
 399 803 399 803 469 811 c 0,78,79
 551 819 551 819 627 796 c 0,80,81
 703 774 703 774 765 728 c 256,82,83
 827 682 827 682 871 616 c 0,84,85
 914 549 914 549 930 469 c 1,86,87
 791 469 791 469 512 469 c 1,88,89
 512 469 512 469 512 469 c 1,68,69
EndSplineSet
Validated: 41
EndChar

StartChar: zero
Encoding: 48 48 49
Width: 970
VWidth: 0
Flags: W
LayerCount: 2
Fore
SplineSet
122.727539062 95.1259765625 m 2,0,1
 113.193359375 116.576171875 113.193359375 116.576171875 101.276367188 149.944335938 c 0,2,3
 89.3603515625 184.501953125 89.3603515625 184.501953125 89.3603515625 219.061523438 c 0,4,5
 89.3603515625 234.553710938 89.3603515625 234.553710938 92.935546875 251.236328125 c 0,6,7
 88.16796875 271.495117188 88.16796875 271.495117188 69.1005859375 276.26171875 c 128,-1,8
 50.0341796875 281.029296875 50.0341796875 281.029296875 33.3505859375 284.603515625 c 2,9,-1
 15.4755859375 307.24609375 l 2,10,11
 27.392578125 354.912109375 27.392578125 354.912109375 69.1005859375 431.180664062 c 128,-1,12
 110.810546875 507.448242188 110.810546875 507.448242188 110.810546875 565.840820312 c 0,13,14
 110.810546875 750.55078125 110.810546875 750.55078125 229.977539062 823.2421875 c 0,15,16
 350.336914062 895.935546875 350.336914062 895.935546875 492.146484375 895.935546875 c 0,17,18
 687.583007812 895.935546875 687.583007812 895.935546875 816.28515625 760.083007812 c 0,19,20
 946.176757812 625.423828125 946.176757812 625.423828125 946.176757812 426.412109375 c 0,21,22
 946.176757812 320.354492188 946.176757812 320.354492188 903.27734375 227.403320312 c 0,23,24
 861.568359375 134.452148438 861.568359375 134.452148438 781.7265625 65.3349609375 c 1,25,-1
 781.7265625 -20.4677734375 l 2,26,27
 775.766601562 -25.2333984375 775.766601562 -25.2333984375 771 -30 c 2,28,-1
 761.466796875 -39.533203125 l 1,29,-1
 417.071289062 -39.533203125 l 1,30,-1
 399.196289062 -24.041015625 l 2,31,32
 393.23828125 33.1591796875 393.23828125 33.1591796875 349.146484375 62.951171875 c 0,33,34
 306.245117188 93.9345703125 306.245117188 93.9345703125 237.127929688 93.9345703125 c 0,35,36
 218.061523438 74.8681640625 218.061523438 74.8681640625 198.994140625 46.267578125 c 0,37,38
 179.927734375 18.8583984375 179.927734375 18.8583984375 162.052734375 -19.2744140625 c 2,39,-1
 84.5927734375 -0.2080078125 l 1,40,-1
 122.727539062 95.1259765625 l 2,0,1
193.036132812 588.481445312 m 2,41,42
 318.162109375 588.481445312 318.162109375 588.481445312 377.74609375 561.07421875 c 128,-1,43
 437.331054688 533.6640625 437.331054688 533.6640625 481.421875 478.84765625 c 0,44,45
 507.638671875 489.572265625 507.638671875 489.572265625 535.047851562 503.873046875 c 128,-1,46
 562.45703125 518.172851562 562.45703125 518.172851562 587.481445312 518.172851562 c 0,47,48
 622.041015625 518.172851562 622.041015625 518.172851562 644.682617188 496.72265625 c 128,-1,49
 667.325195312 475.271484375 667.325195312 475.271484375 667.325195312 437.137695312 c 0,50,51
 667.325195312 382.322265625 667.325195312 382.322265625 623.231445312 334.654296875 c 128,-1,52
 579.138671875 286.986328125 579.138671875 286.986328125 579.138671875 260.76953125 c 0,53,54
 579.138671875 221.4453125 579.138671875 221.4453125 667.325195312 161.860351562 c 128,-1,55
 755.509765625 102.276367188 755.509765625 102.276367188 760.275390625 98.7021484375 c 0,56,57
 832.967773438 160.668945312 832.967773438 160.668945312 869.909179688 245.278320312 c 0,58,59
 908.043945312 331.079101562 908.043945312 331.079101562 908.043945312 427.60546875 c 0,60,61
 908.043945312 614.700195312 908.043945312 614.700195312 790.067382812 735.05859375 c 0,62,63
 672.090820312 856.610351562 672.090820312 856.610351562 484.998046875 856.610351562 c 0,64,65
 332.461914062 856.610351562 332.461914062 856.610351562 240.703125 783.916992188 c 0,66,67
 150.134765625 712.416015625 150.134765625 712.416015625 150.134765625 588.481445312 c 1,68,-1
 193.036132812 588.481445312 l 2,41,42
57.1845703125 319.162109375 m 1,69,70
 83.400390625 312.012695312 83.400390625 312.012695312 107.235351562 296.520507812 c 128,-1,71
 131.068359375 281.029296875 131.068359375 281.029296875 131.068359375 251.236328125 c 2,72,-1
 127.493164062 210.71875 l 2,73,74
 129.876953125 186.885742188 129.876953125 186.885742188 133.452148438 167.819335938 c 0,75,76
 138.219726562 149.944335938 138.219726562 149.944335938 145.3671875 126.109375 c 0,77,78
 151.328125 123.7265625 151.328125 123.7265625 156.094726562 123.7265625 c 0,79,80
 162.052734375 123.7265625 162.052734375 123.7265625 168.009765625 122.53515625 c 2,81,-1
 244.27734375 132.069335938 l 2,82,83
 315.778320312 132.069335938 315.778320312 132.069335938 365.829101562 102.276367188 c 0,84,85
 415.879882812 73.6767578125 415.879882812 73.6767578125 431.372070312 -1.3984375 c 1,86,-1
 743.591796875 -1.3984375 l 1,87,-1
 743.591796875 64.1416015625 l 1,88,-1
 632.765625 143.985351562 l 2,89,90
 614.889648438 155.90234375 614.889648438 155.90234375 604.165039062 164.244140625 c 2,91,-1
 585.099609375 179.734375 l 2,92,93
 568.415039062 196.419921875 568.415039062 196.419921875 554.115234375 216.678710938 c 0,94,95
 539.815429688 238.127929688 539.815429688 238.127929688 539.815429688 260.76953125 c 0,96,97
 539.815429688 294.137695312 539.815429688 294.137695312 583.90625 346.571289062 c 0,98,99
 629.19140625 399.004882812 629.19140625 399.004882812 629.19140625 443.09765625 c 0,100,101
 629.19140625 463.35546875 629.19140625 463.35546875 618.465820312 470.505859375 c 0,102,103
 608.932617188 477.65625 608.932617188 477.65625 592.248046875 477.65625 c 0,104,105
 577.948242188 477.65625 577.948242188 477.65625 562.45703125 472.888671875 c 128,-1,106
 546.96484375 468.123046875 546.96484375 468.123046875 532.665039062 460.971679688 c 2,107,-1
 504.064453125 447.86328125 l 2,108,109
 489.762695312 440.71484375 489.762695312 440.71484375 480.23046875 437.137695312 c 2,110,-1
 458.780273438 446.671875 l 2,111,112
 421.838867188 494.33984375 421.838867188 494.33984375 369.404296875 521.748046875 c 0,113,114
 316.970703125 550.34765625 316.970703125 550.34765625 179.927734375 550.34765625 c 2,115,-1
 148.944335938 550.34765625 l 2,116,117
 145.3671875 516.982421875 145.3671875 516.982421875 134.643554688 488.379882812 c 128,-1,118
 123.91796875 459.780273438 123.91796875 459.780273438 110.810546875 432.373046875 c 2,119,-1
 82.208984375 377.5546875 l 2,120,121
 67.9091796875 348.954101562 67.9091796875 348.954101562 57.1845703125 319.162109375 c 1,69,70
169.203125 416.880859375 m 1,122,123
 237.127929688 439.520507812 237.127929688 439.520507812 263.344726562 439.520507812 c 0,124,125
 296.711914062 439.520507812 296.711914062 439.520507812 340.803710938 416.880859375 c 1,126,127
 290.75390625 393.046875 290.75390625 393.046875 247.852539062 393.046875 c 0,128,129
 206.14453125 393.046875 206.14453125 393.046875 169.203125 416.880859375 c 1,122,123
EndSplineSet
EndChar

StartChar: one
Encoding: 49 49 50
Width: 722
VWidth: 0
Flags: W
LayerCount: 2
Fore
SplineSet
515.532226562 664.637695312 m 2,0,1
 542.216796875 662.211914062 542.216796875 662.211914062 573.146484375 644.017578125 c 0,2,3
 604.68359375 626.4296875 604.68359375 626.4296875 639.859375 593.680664062 c 0,4,5
 713.2421875 437.81640625 713.2421875 437.81640625 713.2421875 377.775390625 c 0,6,7
 713.2421875 371.104492188 713.2421875 371.104492188 707.784179688 365.040039062 c 0,8,9
 702.932617188 358.974609375 702.932617188 358.974609375 692.622070312 351.697265625 c 0,10,11
 685.344726562 354.729492188 685.344726562 354.729492188 679.280273438 356.548828125 c 2,12,-1
 602.864257812 384.447265625 l 2,13,14
 570.114257812 395.969726562 570.114257812 395.969726562 542.823242188 407.493164062 c 1,15,16
 533.7265625 352.91015625 533.7265625 352.91015625 529.48046875 305.60546875 c 128,-1,17
 525.235351562 258.30078125 525.235351562 258.30078125 525.235351562 216.453125 c 0,18,19
 525.235351562 199.47265625 525.235351562 199.47265625 530.693359375 163.083984375 c 2,20,-1
 530.693359375 163.690429688 l 2,21,22
 533.7265625 146.102539062 533.7265625 146.102539062 534.939453125 132.153320312 c 0,23,24
 536.758789062 118.205078125 536.758789062 118.205078125 536.758789062 107.89453125 c 0,25,26
 536.758789062 77.5712890625 536.758789062 77.5712890625 520.990234375 47.853515625 c 1,27,28
 534.333007812 41.7890625 534.333007812 41.7890625 542.216796875 29.6591796875 c 2,29,-1
 598.012695312 9.0390625 l 2,30,31
 610.141601562 4.1875 610.141601562 4.1875 621.05859375 -1.2705078125 c 128,-1,32
 631.974609375 -6.728515625 631.974609375 -6.728515625 649.5625 -18.251953125 c 2,33,-1
 653.807617188 -26.1357421875 l 1,34,-1
 650.775390625 -37.052734375 l 1,35,36
 598.619140625 -35.83984375 598.619140625 -35.83984375 528.267578125 -24.31640625 c 0,37,38
 458.5234375 -12.7939453125 458.5234375 -12.7939453125 418.49609375 -12.7939453125 c 0,39,40
 381.500976562 -12.7939453125 381.500976562 -12.7939453125 293.5625 -20.0712890625 c 0,41,42
 205.624023438 -26.7421875 205.624023438 -26.7421875 164.990234375 -26.7421875 c 0,43,44
 146.795898438 -26.7421875 146.795898438 -26.7421875 134.059570312 -17.6455078125 c 0,45,46
 106.768554688 -19.46484375 106.768554688 -19.46484375 77.0517578125 -27.955078125 c 128,-1,47
 47.333984375 -36.4462890625 47.333984375 -36.4462890625 26.7138671875 -36.4462890625 c 2,48,-1
 13.3720703125 -25.529296875 l 1,49,-1
 21.255859375 -12.7939453125 l 2,50,51
 30.958984375 -6.1220703125 30.958984375 -6.1220703125 39.4501953125 -2.4833984375 c 2,52,-1
 61.8896484375 7.2197265625 l 2,53,54
 75.8388671875 12.0712890625 75.8388671875 12.0712890625 86.7548828125 17.5302734375 c 2,55,-1
 106.768554688 27.83984375 l 2,56,57
 111.013671875 69.080078125 111.013671875 69.080078125 163.77734375 104.255859375 c 1,58,-1
 139.518554688 210.388671875 l 2,59,60
 121.32421875 289.23046875 121.32421875 289.23046875 121.32421875 322.5859375 c 0,61,62
 121.32421875 343.206054688 121.32421875 343.206054688 138.305664062 357.76171875 c 128,-1,63
 155.286132812 372.317382812 155.286132812 372.317382812 176.512695312 372.317382812 c 0,64,65
 206.23046875 361.400390625 206.23046875 361.400390625 238.373046875 336.53515625 c 0,66,67
 270.516601562 312.276367188 270.516601562 312.276367188 304.479492188 269.216796875 c 2,68,-1
 354.81640625 204.930664062 l 1,69,70
 367.552734375 268.610351562 367.552734375 268.610351562 373.6171875 304.391601562 c 128,-1,71
 379.681640625 340.173828125 379.681640625 340.173828125 379.681640625 353.516601562 c 0,72,73
 379.681640625 375.349609375 379.681640625 375.349609375 362.700195312 454.797851562 c 2,74,-1
 345.719726562 534.8515625 l 2,75,76
 344.506835938 540.916992188 344.506835938 540.916992188 343.899414062 545.768554688 c 1,77,78
 335.409179688 537.278320312 335.409179688 537.278320312 327.525390625 528.180664062 c 2,79,-1
 311.150390625 509.986328125 l 1,80,-1
 277.793945312 474.205078125 l 2,81,82
 262.026367188 457.223632812 262.026367188 457.223632812 237.766601562 443.880859375 c 0,83,84
 214.114257812 430.5390625 214.114257812 430.5390625 192.887695312 430.5390625 c 0,85,86
 174.086914062 430.5390625 174.086914062 430.5390625 123.75 496.64453125 c 128,-1,87
 73.4130859375 562.75 73.4130859375 562.75 67.34765625 583.370117188 c 2,88,-1
 54.005859375 596.10546875 l 1,89,-1
 43.6953125 605.809570312 l 1,90,-1
 18.830078125 636.1328125 l 1,91,-1
 17.6171875 645.23046875 l 1,92,-1
 24.89453125 653.720703125 l 2,93,94
 27.9267578125 651.901367188 27.9267578125 651.901367188 34.5986328125 649.475585938 c 0,95,96
 41.8759765625 647.049804688 41.8759765625 647.049804688 44.3017578125 645.836914062 c 2,97,-1
 29.74609375 657.965820312 l 2,98,99
 21.255859375 664.637695312 21.255859375 664.637695312 10.9462890625 671.915039062 c 2,100,-1
 9.732421875 683.438476562 l 1,101,-1
 26.107421875 697.993164062 l 2,102,103
 58.2509765625 686.470703125 58.2509765625 686.470703125 80.6904296875 665.244140625 c 128,-1,104
 103.129882812 644.017578125 103.129882812 644.017578125 109.80078125 605.809570312 c 0,105,106
 140.125 582.763671875 140.125 582.763671875 161.958007812 554.865234375 c 0,107,108
 184.397460938 526.967773438 184.397460938 526.967773438 204.411132812 497.250976562 c 1,109,110
 234.127929688 536.671875 234.127929688 536.671875 254.141601562 560.930664062 c 0,111,112
 274.76171875 585.795898438 274.76171875 585.795898438 286.28515625 596.711914062 c 0,113,114
 332.983398438 639.772460938 332.983398438 639.772460938 406.366210938 661.60546875 c 1,115,116
 403.940429688 668.276367188 403.940429688 668.276367188 400.908203125 672.521484375 c 128,-1,117
 397.875976562 676.766601562 397.875976562 676.766601562 395.450195312 679.192382812 c 0,118,119
 388.779296875 681.619140625 388.779296875 681.619140625 360.880859375 684.651367188 c 0,120,121
 356.635742188 689.502929688 356.635742188 689.502929688 352.390625 702.239257812 c 0,122,123
 348.751953125 715.581054688 348.751953125 715.581054688 348.145507812 719.219726562 c 128,-1,124
 347.5390625 722.859375 347.5390625 722.859375 337.228515625 722.859375 c 2,125,-1
 329.951171875 734.381835938 l 2,126,127
 332.376953125 753.182617188 332.376953125 753.182617188 341.473632812 769.557617188 c 128,-1,128
 350.571289062 785.931640625 350.571289062 785.931640625 350.571289062 799.274414062 c 0,129,130
 350.571289062 886 350.571289062 886 447 886 c 0,131,132
 562.836914062 886 562.836914062 886 562.836914062 799.274414062 c 0,133,134
 562.836914062 763.493164062 562.836914062 763.493164062 551.313476562 734.381835938 c 0,135,136
 540.397460938 705.271484375 540.397460938 705.271484375 515.532226562 681.012695312 c 2,137,-1
 515.532226562 664.637695312 l 2,0,1
496.125 653.721679688 m 1,138,-1
 496.125 676.161132812 l 1,139,140
 454.884765625 684.651367188 454.884765625 684.651367188 454.884765625 719.827148438 c 0,141,142
 454.884765625 735.594726562 454.884765625 735.594726562 465.194335938 761.067382812 c 0,143,144
 476.111328125 768.951171875 476.111328125 768.951171875 476.111328125 779.868164062 c 0,145,146
 476.111328125 784.719726562 476.111328125 784.719726562 474.291992188 787.751953125 c 0,147,148
 473.079101562 791.390625 473.079101562 791.390625 471.866210938 792.603515625 c 2,149,-1
 465.194335938 787.145507812 l 2,150,151
 461.555664062 784.11328125 461.555664062 784.11328125 458.5234375 779.868164062 c 2,152,-1
 442.1484375 773.802734375 l 1,153,-1
 369.978515625 797.455078125 l 2,154,155
 368.765625 783.506835938 368.765625 783.506835938 360.274414062 765.918945312 c 0,156,157
 352.390625 748.331054688 352.390625 748.331054688 350.571289062 742.266601562 c 0,158,159
 356.635742188 739.840820312 356.635742188 739.840820312 361.487304688 734.381835938 c 128,-1,160
 366.33984375 728.923828125 366.33984375 728.923828125 368.159179688 721.040039062 c 2,161,-1
 370.584960938 710.123046875 l 2,162,163
 370.584960938 705.271484375 370.584960938 705.271484375 372.404296875 702.845703125 c 0,164,165
 403.940429688 698.600585938 403.940429688 698.600585938 413.038085938 688.290039062 c 128,-1,166
 422.134765625 677.98046875 422.134765625 677.98046875 428.200195312 656.147460938 c 2,167,-1
 420.921875 646.443359375 l 2,168,169
 382.713867188 634.920898438 382.713867188 634.920898438 352.390625 619.15234375 c 128,-1,170
 322.06640625 603.383789062 322.06640625 603.383789062 299.626953125 582.763671875 c 0,171,172
 278.400390625 563.356445312 278.400390625 563.356445312 210.475585938 471.779296875 c 1,173,-1
 196.526367188 472.385742188 l 2,174,175
 173.48046875 507.560546875 173.48046875 507.560546875 150.434570312 537.884765625 c 0,176,177
 127.388671875 568.814453125 127.388671875 568.814453125 95.8525390625 593.073242188 c 0,178,179
 93.42578125 608.841796875 93.42578125 608.841796875 78.2646484375 633.70703125 c 128,-1,180
 63.1025390625 658.572265625 63.1025390625 658.572265625 50.97265625 664.637695312 c 1,181,182
 55.8251953125 657.966796875 55.8251953125 657.966796875 59.4638671875 651.294921875 c 2,183,-1
 65.5283203125 640.37890625 l 2,184,185
 68.560546875 634.919921875 68.560546875 634.919921875 68.560546875 632.494140625 c 2,186,-1
 66.7412109375 628.249023438 l 2,187,188
 65.5283203125 626.4296875 65.5283203125 626.4296875 64.3154296875 625.216796875 c 2,189,-1
 52.79296875 625.823242188 l 2,190,191
 61.8896484375 616.119140625 61.8896484375 616.119140625 67.9541015625 610.0546875 c 2,192,-1
 83.72265625 594.286132812 l 1,193,-1
 86.7548828125 590.041015625 l 2,194,195
 91.6064453125 571.240234375 91.6064453125 571.240234375 137.69921875 510.592773438 c 0,196,197
 184.397460938 449.9453125 184.397460938 449.9453125 192.887695312 449.9453125 c 0,198,199
 228.063476562 449.9453125 228.063476562 449.9453125 272.3359375 494.82421875 c 0,200,201
 279.006835938 501.49609375 279.006835938 501.49609375 284.465820312 508.166992188 c 0,202,203
 290.530273438 515.444335938 290.530273438 515.444335938 296.594726562 522.116210938 c 2,204,-1
 319.640625 548.194335938 l 2,205,206
 333.58984375 563.356445312 333.58984375 563.356445312 345.11328125 576.698242188 c 2,207,-1
 359.66796875 572.453125 l 2,208,209
 365.733398438 535.458007812 365.733398438 535.458007812 382.107421875 456.6171875 c 0,210,211
 399.088867188 378.381835938 399.088867188 378.381835938 399.088867188 353.516601562 c 0,212,213
 399.088867188 335.322265625 399.088867188 335.322265625 392.41796875 295.901367188 c 128,-1,214
 385.747070312 256.48046875 385.747070312 256.48046875 373.6171875 199.471679688 c 1,215,216
 410.005859375 213.420898438 410.005859375 213.420898438 442.754882812 219.485351562 c 0,217,218
 476.111328125 226.157226562 476.111328125 226.157226562 505.828125 226.157226562 c 1,219,220
 505.828125 271.036132812 505.828125 271.036132812 510.073242188 314.095703125 c 0,221,222
 514.319335938 357.76171875 514.319335938 357.76171875 524.62890625 415.376953125 c 1,223,224
 471.259765625 438.422851562 471.259765625 438.422851562 443.361328125 457.223632812 c 128,-1,225
 415.463867188 476.024414062 415.463867188 476.024414062 405.153320312 494.82421875 c 2,226,-1
 414.857421875 504.528320312 l 2,227,228
 411.825195312 505.741210938 411.825195312 505.741210938 406.973632812 510.592773438 c 0,229,230
 402.12109375 516.051757812 402.12109375 516.051757812 399.088867188 517.264648438 c 2,231,-1
 399.088867188 537.278320312 l 1,232,-1
 409.399414062 546.981445312 l 2,233,234
 436.690429688 546.981445312 436.690429688 546.981445312 458.5234375 529.39453125 c 0,235,236
 480.962890625 512.413085938 480.962890625 512.413085938 494.305664062 476.024414062 c 2,237,-1
 507.647460938 469.959960938 l 1,238,-1
 517.3515625 466.3203125 l 2,239,240
 522.809570312 463.89453125 522.809570312 463.89453125 533.120117188 460.862304688 c 2,241,-1
 536.758789062 480.26953125 l 2,242,243
 543.4296875 519.083984375 543.4296875 519.083984375 553.740234375 536.065429688 c 0,244,245
 564.65625 553.653320312 564.65625 553.653320312 580.424804688 557.291992188 c 2,246,-1
 595.586914062 546.981445312 l 1,247,-1
 610.748046875 513.01953125 l 1,248,-1
 624.090820312 485.12109375 l 1,249,-1
 647.13671875 434.177734375 l 2,250,251
 651.98828125 423.260742188 651.98828125 423.260742188 655.626953125 415.983398438 c 2,252,-1
 650.168945312 408.706054688 l 2,253,254
 613.173828125 418.409179688 613.173828125 418.409179688 580.424804688 427.506835938 c 0,255,256
 548.28125 437.209960938 548.28125 437.209960938 525.841796875 446.307617188 c 2,257,-1
 485.208007812 462.075195312 l 2,258,259
 483.995117188 465.108398438 483.995117188 465.108398438 480.356445312 467.534179688 c 0,260,261
 477.32421875 470.56640625 477.32421875 470.56640625 470.653320312 485.12109375 c 0,262,263
 464.587890625 500.283203125 464.587890625 500.283203125 450.033203125 512.413085938 c 0,264,265
 436.083984375 524.541992188 436.083984375 524.541992188 417.889648438 527.57421875 c 2,266,-1
 417.889648438 525.754882812 l 2,267,268
 454.884765625 512.413085938 454.884765625 512.413085938 467.620117188 476.024414062 c 2,269,-1
 461.555664062 469.959960938 l 1,270,271
 508.25390625 440.2421875 508.25390625 440.2421875 596.193359375 407.493164062 c 0,272,273
 684.131835938 375.349609375 684.131835938 375.349609375 689.58984375 373.530273438 c 2,274,-1
 693.834960938 377.775390625 l 2,275,276
 693.834960938 417.196289062 693.834960938 417.196289062 662.905273438 493.005859375 c 0,277,278
 632.581054688 568.814453125 632.581054688 568.814453125 625.303710938 579.731445312 c 128,-1,279
 618.026367188 590.6484375 618.026367188 590.6484375 578.60546875 616.7265625 c 0,280,281
 539.791015625 642.8046875 539.791015625 642.8046875 503.40234375 645.836914062 c 2,282,-1
 496.125 653.721679688 l 1,138,-1
161.958007812 79.390625 m 1,283,284
 169.235351562 72.7197265625 169.235351562 72.7197265625 177.7265625 63.015625 c 0,285,286
 186.823242188 53.9189453125 186.823242188 53.9189453125 197.1328125 42.3955078125 c 0,287,288
 228.063476562 50.88671875 228.063476562 50.88671875 255.354492188 54.525390625 c 0,289,290
 283.252929688 58.1640625 283.252929688 58.1640625 310.543945312 58.1640625 c 0,291,292
 326.3125 58.1640625 326.3125 58.1640625 474.8984375 40.576171875 c 1,293,-1
 499.157226562 49.0673828125 l 2,294,295
 517.3515625 81.81640625 517.3515625 81.81640625 517.3515625 107.89453125 c 0,296,297
 517.3515625 123.663085938 517.3515625 123.663085938 511.893554688 153.987304688 c 0,298,299
 507.041015625 184.310546875 507.041015625 184.310546875 505.828125 206.75 c 0,300,301
 465.194335938 206.75 465.194335938 206.75 416.0703125 192.194335938 c 0,302,303
 366.946289062 178.24609375 366.946289062 178.24609375 305.0859375 149.741210938 c 2,304,-1
 252.322265625 125.482421875 l 2,305,306
 214.114257812 107.288085938 214.114257812 107.288085938 194.70703125 98.7978515625 c 128,-1,307
 175.299804688 90.306640625 175.299804688 90.306640625 161.958007812 79.390625 c 1,283,284
185.610351562 295.294921875 m 0,308,309
 202.591796875 257.693359375 202.591796875 257.693359375 209.869140625 221.912109375 c 0,310,311
 217.752929688 186.129882812 217.752929688 186.129882812 217.752929688 149.741210938 c 2,312,-1
 217.752929688 140.038085938 l 2,313,314
 217.752929688 135.186523438 217.752929688 135.186523438 217.146484375 130.333984375 c 1,315,316
 245.044921875 143.676757812 245.044921875 143.676757812 280.219726562 159.4453125 c 0,317,318
 316.001953125 175.213867188 316.001953125 175.213867188 343.899414062 188.555664062 c 2,319,-1
 271.123046875 279.52734375 l 2,320,321
 237.766601562 315.915039062 237.766601562 315.915039062 207.443359375 335.322265625 c 1,322,323
 201.985351562 326.225585938 201.985351562 326.225585938 195.919921875 315.915039062 c 0,324,325
 190.461914062 305.60546875 190.461914062 305.60546875 185.610351562 295.294921875 c 0,308,309
125.569335938 26.021484375 m 2,326,-1
 132.240234375 14.498046875 l 1,327,-1
 143.763671875 -1.876953125 l 2,328,329
 151.041015625 -7.3349609375 151.041015625 -7.3349609375 164.990234375 -7.3349609375 c 0,330,331
 205.017578125 -7.3349609375 205.017578125 -7.3349609375 292.349609375 -0.6640625 c 0,332,333
 380.288085938 6.61328125 380.288085938 6.61328125 418.49609375 6.61328125 c 0,334,335
 439.116210938 6.61328125 439.116210938 6.61328125 467.013671875 3.5810546875 c 0,336,337
 495.518554688 1.1552734375 495.518554688 1.1552734375 531.907226562 -4.9091796875 c 2,338,-1
 560.411132812 -9.7607421875 l 2,339,340
 570.720703125 -11.580078125 570.720703125 -11.580078125 577.999023438 -12.1865234375 c 2,341,-1
 590.734375 -14.0068359375 l 2,342,343
 596.193359375 -14.0068359375 596.193359375 -14.0068359375 605.290039062 -14.6123046875 c 2,344,-1
 528.874023438 13.8916015625 l 2,345,346
 521.596679688 26.626953125 521.596679688 26.626953125 503.40234375 30.2666015625 c 2,347,-1
 477.32421875 21.775390625 l 2,348,349
 393.630859375 30.873046875 393.630859375 30.873046875 355.422851562 34.51171875 c 0,350,351
 317.821289062 38.7568359375 317.821289062 38.7568359375 310.543945312 38.7568359375 c 0,352,353
 282.646484375 38.7568359375 282.646484375 38.7568359375 255.9609375 35.1181640625 c 128,-1,354
 229.276367188 31.4794921875 229.276367188 31.4794921875 196.526367188 22.3818359375 c 2,355,-1
 186.216796875 25.4150390625 l 2,356,357
 175.299804688 37.5439453125 175.299804688 37.5439453125 164.990234375 47.8544921875 c 0,358,359
 155.286132812 58.7705078125 155.286132812 58.7705078125 147.40234375 65.44140625 c 0,360,361
 128.6015625 45.427734375 128.6015625 45.427734375 125.569335938 26.021484375 c 2,326,-1
371.797851562 817.46875 m 1,362,-1
 442.754882812 793.209960938 l 2,363,364
 451.852539062 805.33984375 451.852539062 805.33984375 467.620117188 812.010742188 c 0,365,366
 495.518554688 812.010742188 495.518554688 812.010742188 495.518554688 779.868164062 c 0,367,368
 495.518554688 760.4609375 495.518554688 760.4609375 480.962890625 748.331054688 c 0,369,370
 477.930664062 739.234375 477.930664062 739.234375 476.111328125 732.5625 c 128,-1,371
 474.291992188 725.891601562 474.291992188 725.891601562 474.291992188 719.827148438 c 0,372,373
 474.291992188 699.20703125 474.291992188 699.20703125 502.795898438 694.9609375 c 0,374,375
 543.4296875 738.021484375 543.4296875 738.021484375 543.4296875 799.274414062 c 0,376,377
 543.4296875 866.59375 543.4296875 866.59375 447 866.59375 c 0,378,379
 380.89453125 866.59375 380.89453125 866.59375 371.797851562 817.46875 c 1,362,-1
163.77734375 294.08203125 m 0,380,381
 180.15234375 328.044921875 180.15234375 328.044921875 190.461914062 345.026367188 c 2,382,-1
 181.365234375 349.271484375 l 1,383,-1
 172.874023438 352.91015625 l 2,384,385
 160.138671875 352.91015625 160.138671875 352.91015625 150.434570312 343.813476562 c 128,-1,386
 140.731445312 334.715820312 140.731445312 334.715820312 140.731445312 322.586914062 c 0,387,388
 140.731445312 308.637695312 140.731445312 308.637695312 145.583007812 281.346679688 c 128,-1,389
 150.434570312 254.0546875 150.434570312 254.0546875 158.92578125 215.241210938 c 2,390,-1
 172.874023438 153.380859375 l 2,391,392
 178.333007812 129.12109375 178.333007812 129.12109375 181.365234375 113.959960938 c 2,393,-1
 196.526367188 121.237304688 l 2,394,395
 198.346679688 135.79296875 198.346679688 135.79296875 198.346679688 149.741210938 c 0,396,397
 198.346679688 217.666992188 198.346679688 217.666992188 163.77734375 294.08203125 c 0,380,381
552.52734375 454.797851562 m 1,398,-1
 567.08203125 451.765625 l 1,399,-1
 596.799804688 444.48828125 l 1,400,-1
 623.484375 436.603515625 l 1,401,-1
 610.748046875 465.108398438 l 1,402,-1
 592.553710938 504.528320312 l 2,403,404
 589.521484375 511.806640625 589.521484375 511.806640625 585.8828125 519.690429688 c 2,405,-1
 577.392578125 537.278320312 l 2,406,407
 568.294921875 530.607421875 568.294921875 530.607421875 561.624023438 506.34765625 c 2,408,-1
 559.198242188 491.186523438 l 1,409,-1
 556.166015625 476.630859375 l 1,410,-1
 552.52734375 454.797851562 l 1,398,-1
381.500976562 784.11328125 m 2,411,412
 401.514648438 780.474609375 401.514648438 780.474609375 408.186523438 771.983398438 c 1,413,414
 401.514648438 769.557617188 401.514648438 769.557617188 394.84375 768.344726562 c 2,415,-1
 381.500976562 765.3125 l 1,416,-1
 371.797851562 775.622070312 l 1,417,-1
 381.500976562 784.11328125 l 2,411,412
112.833007812 8.43359375 m 2,418,419
 105.555664062 4.1875 105.555664062 4.1875 95.24609375 -0.6640625 c 128,-1,420
 84.935546875 -5.515625 84.935546875 -5.515625 71.5927734375 -10.3671875 c 2,421,-1
 79.4775390625 -7.94140625 l 2,422,423
 103.129882812 -0.6640625 103.129882812 -0.6640625 118.291992188 1.1552734375 c 2,424,-1
 112.833007812 8.43359375 l 2,418,419
EndSplineSet
EndChar

StartChar: two
Encoding: 50 50 51
Width: 1508
VWidth: 0
Flags: W
LayerCount: 2
Fore
SplineSet
1355.43164062 19.2568359375 m 1,0,1
 1355.43164062 81.4599609375 1355.43164062 81.4599609375 1434.15722656 81.4599609375 c 1,2,3
 1451.65136719 126.168945312 1451.65136719 126.168945312 1451.65136719 167.9609375 c 0,4,5
 1451.65136719 237.939453125 1451.65136719 237.939453125 1403.05566406 301.114257812 c 0,6,7
 1403.05566406 326.384765625 1403.05566406 326.384765625 1395.28027344 381.784179688 c 128,-1,8
 1387.50488281 437.18359375 1387.50488281 437.18359375 1371.95410156 505.217773438 c 1,9,-1
 177.461914062 505.217773438 l 2,10,11
 154.135742188 471.201171875 154.135742188 471.201171875 142.47265625 426.4921875 c 0,12,13
 131.78125 381.784179688 131.78125 381.784179688 131.78125 342.907226562 c 128,-1,14
 131.78125 304.030273438 131.78125 304.030273438 140.528320312 272.928710938 c 0,15,16
 150.248046875 242.798828125 150.248046875 242.798828125 162.8828125 205.866210938 c 0,17,18
 158.0234375 184.483398438 158.0234375 184.483398438 145.388671875 184.483398438 c 0,19,20
 140.528320312 184.483398438 140.528320312 184.483398438 137.61328125 189.34375 c 2,21,-1
 133.725585938 195.174804688 l 1,22,-1
 55 132 l 1,23,-1
 55 -43.91796875 l 1,24,-1
 8.34765625 -43.91796875 l 1,25,-1
 8.34765625 144.634765625 l 1,26,27
 66.6630859375 185.456054688 66.6630859375 185.456054688 102.624023438 237.939453125 c 1,28,29
 81.2412109375 301.114257812 81.2412109375 301.114257812 81.2412109375 378.868164062 c 0,30,31
 81.2412109375 408.026367188 81.2412109375 408.026367188 79.2978515625 443.014648438 c 0,32,33
 78.326171875 478.9765625 78.326171875 478.9765625 74.4384765625 512.993164062 c 0,34,35
 45.2802734375 553.814453125 45.2802734375 553.814453125 27.7861328125 593.663085938 c 0,36,37
 11.2626953125 633.51171875 11.2626953125 633.51171875 11.2626953125 680.1640625 c 0,38,39
 11.2626953125 736.536132812 11.2626953125 736.536132812 40.4208984375 774.440429688 c 0,40,41
 70.55078125 812.345703125 70.55078125 812.345703125 125.950195312 823.037109375 c 0,42,43
 141.500976562 836.643554688 141.500976562 836.643554688 158.995117188 846.36328125 c 0,44,45
 177.461914062 857.053710938 177.461914062 857.053710938 196.900390625 865.80078125 c 0,46,47
 198.84375 863.857421875 198.84375 863.857421875 202.731445312 861.913085938 c 0,48,49
 206.619140625 860.94140625 206.619140625 860.94140625 217.310546875 856.08203125 c 2,50,-1
 224.114257812 845.390625 l 2,51,52
 227.029296875 838.587890625 227.029296875 838.587890625 232.861328125 837.615234375 c 0,53,54
 238.692382812 837.615234375 238.692382812 837.615234375 249.383789062 843.447265625 c 0,55,56
 261.046875 849.278320312 261.046875 849.278320312 271.73828125 849.278320312 c 0,57,58
 279.513671875 849.278320312 279.513671875 849.278320312 286.317382812 843.447265625 c 0,59,60
 294.092773438 837.615234375 294.092773438 837.615234375 298.952148438 821.092773438 c 2,61,-1
 334.913085938 835.671875 l 2,62,63
 375.733398438 851.22265625 375.733398438 851.22265625 377.677734375 873.576171875 c 128,-1,64
 379.62109375 895.930664062 379.62109375 895.930664062 401.00390625 895.930664062 c 0,65,66
 414.610351562 894.958984375 414.610351562 894.958984375 416.5546875 881.3515625 c 0,67,68
 416.5546875 864.829101562 416.5546875 864.829101562 405.86328125 852.194335938 c 0,69,70
 396.14453125 839.559570312 396.14453125 839.559570312 375.733398438 825.952148438 c 2,71,-1
 348.520507812 810.401367188 l 2,72,73
 340.745117188 805.541992188 340.745117188 805.541992188 333.94140625 801.654296875 c 128,-1,74
 327.137695312 797.766601562 327.137695312 797.766601562 319.362304688 793.87890625 c 2,75,-1
 326.166015625 787.075195312 l 2,76,77
 340.745117188 772.497070312 340.745117188 772.497070312 359.2109375 763.749023438 c 0,78,79
 377.677734375 755.973632812 377.677734375 755.973632812 402.947265625 755.973632812 c 0,80,81
 429.189453125 755.973632812 429.189453125 755.973632812 456.403320312 762.77734375 c 0,82,83
 483.6171875 770.552734375 483.6171875 770.552734375 511.802734375 770.552734375 c 0,84,85
 573.034179688 770.552734375 573.034179688 770.552734375 650.788085938 758.889648438 c 128,-1,86
 728.541992188 747.2265625 728.541992188 747.2265625 824.76171875 724.873046875 c 128,-1,87
 920.982421875 702.518554688 920.982421875 702.518554688 998.736328125 690.85546875 c 128,-1,88
 1076.48925781 679.192382812 1076.48925781 679.192382812 1137.72070312 679.192382812 c 0,89,90
 1300.03222656 679.192382812 1300.03222656 679.192382812 1338.90917969 735.563476562 c 0,91,92
 1358.34667969 763.749023438 1358.34667969 763.749023438 1370.98242188 782.215820312 c 0,93,94
 1383.6171875 801.654296875 1383.6171875 801.654296875 1389.44824219 810.401367188 c 2,95,-1
 1402.08398438 818.176757812 l 1,96,-1
 1434.15722656 818.176757812 l 1,97,-1
 1450.6796875 802.625976562 l 1,98,-1
 1450.6796875 521.741210938 l 2,99,100
 1458.45507812 494.52734375 1458.45507812 494.52734375 1461.37109375 463.42578125 c 128,-1,101
 1464.28710938 432.32421875 1464.28710938 432.32421875 1464.28710938 411.9140625 c 0,102,103
 1464.28710938 398.306640625 1464.28710938 398.306640625 1464.28710938 384.700195312 c 128,-1,104
 1464.28710938 371.092773438 1464.28710938 371.092773438 1463.31445312 357.486328125 c 2,105,-1
 1461.37109375 301.114257812 l 2,106,107
 1493.44433594 194.203125 1493.44433594 194.203125 1493.44433594 160.185546875 c 0,108,109
 1461.37109375 63.9658203125 1461.37109375 63.9658203125 1461.37109375 19.2568359375 c 1,110,-1
 1430.26953125 19.2568359375 l 1,111,112
 1430.26953125 -43.91796875 1430.26953125 -43.91796875 1414.71875 -43.91796875 c 0,113,114
 1383.6171875 -43.91796875 1383.6171875 -43.91796875 1383.6171875 19.2568359375 c 1,115,-1
 1355.43164062 19.2568359375 l 1,0,1
68.6064453125 759.861328125 m 1,116,117
 53.0556640625 740.422851562 53.0556640625 740.422851562 46.251953125 720.012695312 c 0,118,119
 40.4208984375 699.602539062 40.4208984375 699.602539062 40.4208984375 679.192382812 c 0,120,121
 40.4208984375 642.258789062 40.4208984375 642.258789062 56.943359375 606.297851562 c 128,-1,122
 73.4658203125 570.336914062 73.4658203125 570.336914062 96.7919921875 536.319335938 c 2,123,-1
 1419.578125 536.319335938 l 1,124,-1
 1419.578125 787.075195312 l 1,125,-1
 1410.83105469 787.075195312 l 2,126,127
 1402.08398438 774.440429688 1402.08398438 774.440429688 1394.30859375 762.77734375 c 0,128,129
 1387.50488281 752.0859375 1387.50488281 752.0859375 1379.72949219 740.422851562 c 0,130,131
 1371.95410156 729.732421875 1371.95410156 729.732421875 1366.12207031 720.012695312 c 0,132,133
 1317.52636719 648.090820312 1317.52636719 648.090820312 1137.72070312 648.090820312 c 0,134,135
 1078.43359375 648.090820312 1078.43359375 648.090820312 1001.65136719 659.75390625 c 0,136,137
 925.841796875 671.416992188 925.841796875 671.416992188 829.62109375 693.771484375 c 0,138,139
 636.208984375 739.451171875 636.208984375 739.451171875 520.549804688 739.451171875 c 0,140,141
 496.251953125 739.451171875 496.251953125 739.451171875 479.729492188 735.563476562 c 2,142,-1
 455.431640625 729.732421875 l 2,143,144
 441.82421875 726.81640625 441.82421875 726.81640625 420.442382812 723.900390625 c 2,145,-1
 373.790039062 700.57421875 l 2,146,147
 327.137695312 677.248046875 327.137695312 677.248046875 290.205078125 665.584960938 c 0,148,149
 254.243164062 654.89453125 254.243164062 654.89453125 221.198242188 654.89453125 c 0,150,151
 168.71484375 654.89453125 168.71484375 654.89453125 128.865234375 684.051757812 c 0,152,153
 89.98828125 713.209960938 89.98828125 713.209960938 68.6064453125 759.861328125 c 1,116,117
266.87890625 819.149414062 m 2,154,155
 247.440429688 808.458007812 247.440429688 808.458007812 233.833007812 808.458007812 c 0,156,157
 213.422851562 808.458007812 213.422851562 808.458007812 195.928710938 831.784179688 c 0,158,159
 181.349609375 824.008789062 181.349609375 824.008789062 165.798828125 810.401367188 c 128,-1,160
 150.248046875 796.794921875 150.248046875 796.794921875 136.640625 792.907226562 c 2,161,-1
 115.258789062 789.01953125 l 2,162,163
 108.455078125 788.047851562 108.455078125 788.047851562 102.624023438 786.103515625 c 128,-1,164
 96.7919921875 784.16015625 96.7919921875 784.16015625 91.9326171875 782.215820312 c 1,165,166
 109.426757812 741.395507812 109.426757812 741.395507812 143.444335938 712.237304688 c 0,167,168
 177.461914062 684.051757812 177.461914062 684.051757812 221.198242188 684.051757812 c 0,169,170
 257.159179688 684.051757812 257.159179688 684.051757812 294.092773438 697.659179688 c 0,171,172
 331.997070312 712.237304688 331.997070312 712.237304688 366.014648438 729.732421875 c 1,173,174
 328.109375 739.451171875 328.109375 739.451171875 304.783203125 767.63671875 c 0,175,176
 293.120117188 781.244140625 293.120117188 781.244140625 285.344726562 789.991210938 c 0,177,178
 277.569335938 799.7109375 277.569335938 799.7109375 272.709960938 804.5703125 c 2,179,-1
 266.87890625 819.149414062 l 2,154,155
165.798828125 755.001953125 m 1,180,181
 149.276367188 769.581054688 149.276367188 769.581054688 149.276367188 777.356445312 c 0,182,183
 149.276367188 784.16015625 149.276367188 784.16015625 164.827148438 784.16015625 c 0,184,185
 177.461914062 784.16015625 177.461914062 784.16015625 177.461914062 776.384765625 c 0,186,187
 177.461914062 769.581054688 177.461914062 769.581054688 165.798828125 755.001953125 c 1,180,181
EndSplineSet
EndChar

StartChar: three
Encoding: 51 51 52
Width: 1884
VWidth: 0
Flags: W
LayerCount: 2
Fore
SplineSet
1789.98730469 14.8681640625 m 1,0,1
 1789.98730469 27.2666015625 1789.98730469 27.2666015625 1798.66601562 39.6650390625 c 0,2,3
 1808.58496094 52.0625 1808.58496094 52.0625 1829.66113281 52.0625 c 0,4,5
 1869.3359375 52.0625 1869.3359375 52.0625 1869.3359375 14.8681640625 c 0,6,7
 1869.3359375 -12.408203125 1869.3359375 -12.408203125 1851.97851562 -27.28515625 c 0,8,9
 1834.62109375 -40.923828125 1834.62109375 -40.923828125 1816.0234375 -40.923828125 c 0,10,11
 1773.86914062 -40.923828125 1773.86914062 -40.923828125 1755.27246094 -23.56640625 c 128,-1,12
 1736.67480469 -6.208984375 1736.67480469 -6.208984375 1727.99609375 29.74609375 c 128,-1,13
 1719.31738281 65.701171875 1719.31738281 65.701171875 1693.28125 150.008789062 c 0,14,15
 1668.48535156 235.556640625 1668.48535156 235.556640625 1625.09082031 371.936523438 c 0,16,17
 1539.54394531 644.697265625 1539.54394531 644.697265625 1409.36230469 760 c 1,18,-1
 1116.76464844 760 l 1,19,20
 1220.91015625 685.611328125 1220.91015625 685.611328125 1313.89648438 492.19921875 c 0,21,22
 1361.00976562 395.493164062 1361.00976562 395.493164062 1400.68359375 276.470703125 c 128,-1,23
 1440.35839844 157.447265625 1440.35839844 157.447265625 1472.59375 14.8681640625 c 1,24,25
 1480.03222656 33.4658203125 1480.03222656 33.4658203125 1492.43066406 42.14453125 c 0,26,27
 1504.82910156 52.0625 1504.82910156 52.0625 1527.14550781 52.0625 c 0,28,29
 1546.98242188 52.0625 1546.98242188 52.0625 1559.38085938 42.14453125 c 0,30,31
 1571.77929688 33.4658203125 1571.77929688 33.4658203125 1571.77929688 14.8681640625 c 0,32,33
 1571.77929688 -9.927734375 1571.77929688 -9.927734375 1551.94140625 -26.0458984375 c 128,-1,34
 1532.10449219 -42.1630859375 1532.10449219 -42.1630859375 1515.98730469 -42.1630859375 c 0,35,36
 1466.39453125 -42.1630859375 1466.39453125 -42.1630859375 1441.59765625 -29.765625 c 0,37,38
 1416.80175781 -16.126953125 1416.80175781 -16.126953125 1410.60253906 9.9091796875 c 128,-1,39
 1404.40332031 35.9453125 1404.40332031 35.9453125 1390.765625 88.017578125 c 0,40,41
 1377.12695312 141.330078125 1377.12695312 141.330078125 1353.5703125 221.91796875 c 0,42,43
 1307.69726562 383.094726562 1307.69726562 383.094726562 1230.828125 519.474609375 c 0,44,45
 1155.19921875 655.85546875 1155.19921875 655.85546875 1034.93652344 760 c 1,46,-1
 690.266601562 760 l 1,47,48
 995.262695312 632.298828125 995.262695312 632.298828125 1136.6015625 14.8681640625 c 1,49,50
 1136.6015625 28.505859375 1136.6015625 28.505859375 1149 39.6650390625 c 0,51,52
 1161.3984375 52.0625 1161.3984375 52.0625 1182.47558594 52.0625 c 0,53,54
 1210.99121094 52.0625 1210.99121094 52.0625 1222.14941406 42.14453125 c 0,55,56
 1234.54785156 33.4658203125 1234.54785156 33.4658203125 1234.54785156 14.8681640625 c 0,57,58
 1234.54785156 -8.6884765625 1234.54785156 -8.6884765625 1212.23144531 -24.8056640625 c 128,-1,59
 1189.9140625 -40.923828125 1189.9140625 -40.923828125 1162.63867188 -40.923828125 c 0,60,61
 1124.20410156 -40.923828125 1124.20410156 -40.923828125 1100.64746094 -13.6474609375 c 0,62,63
 1078.33007812 14.8681640625 1078.33007812 14.8681640625 1060.97265625 71.900390625 c 0,64,65
 1026.2578125 188.443359375 1026.2578125 188.443359375 979.14453125 319.864257812 c 0,66,67
 932.03125 455.004882812 932.03125 455.004882812 839.044921875 567.828125 c 0,68,69
 747.298828125 681.891601562 747.298828125 681.891601562 601 760 c 1,70,-1
 7.1259765625 760 l 1,71,-1
 7.1259765625 890.181640625 l 1,72,-1
 1194.87402344 890.181640625 l 2,73,74
 1389.52539062 890.181640625 1389.52539062 890.181640625 1523.42578125 724.044921875 c 0,75,76
 1658.56640625 557.909179688 1658.56640625 557.909179688 1789.98730469 14.8681640625 c 1,0,1
46.7998046875 799.674804688 m 1,77,-1
 1364.72851562 799.674804688 l 2,78,79
 1334.97363281 821.991210938 1334.97363281 821.991210938 1287.86035156 835.62890625 c 0,80,81
 1240.74707031 850.506835938 1240.74707031 850.506835938 1192.39355469 850.506835938 c 2,82,-1
 46.7998046875 850.506835938 l 1,83,-1
 46.7998046875 799.674804688 l 1,77,-1
EndSplineSet
EndChar

StartChar: four
Encoding: 52 52 53
Width: 1024
VWidth: 0
LayerCount: 2
Fore
SplineSet
553.763671875 -45.111328125 m 1,0,-1
 380.028320312 -45.111328125 l 1,1,-1
 362.1796875 -22.501953125 l 2,2,3
 371.69921875 15.576171875 371.69921875 15.576171875 380.028320312 53.6552734375 c 128,-1,4
 388.358398438 91.734375 388.358398438 91.734375 397.877929688 129.813476562 c 0,5,6
 307.440429688 175.032226562 307.440429688 175.032226562 239.61328125 247.620117188 c 0,7,8
 172.974609375 320.208007812 172.974609375 320.208007812 125.375976562 405.884765625 c 1,9,10
 114.666992188 398.745117188 114.666992188 398.745117188 100.38671875 393.985351562 c 0,11,12
 87.296875 390.415039062 87.296875 390.415039062 75.3974609375 390.415039062 c 0,13,14
 38.5087890625 390.415039062 38.5087890625 390.415039062 20.6591796875 428.494140625 c 0,15,16
 4 467.763671875 4 467.763671875 4 528.451171875 c 0,17,18
 4 595.08984375 4 595.08984375 19.4697265625 623.6484375 c 0,19,20
 34.9384765625 653.397460938 34.9384765625 653.397460938 65.8779296875 653.397460938 c 0,21,22
 94.4375 653.397460938 94.4375 653.397460938 120.616210938 627.21875 c 1,23,24
 142.036132812 749.78515625 142.036132812 749.78515625 231.283203125 822.373046875 c 0,25,26
 321.720703125 896.150390625 321.720703125 896.150390625 457.375976562 896.150390625 c 0,27,28
 588.272460938 896.150390625 588.272460938 896.150390625 684.659179688 821.182617188 c 0,29,30
 781.046875 747.405273438 781.046875 747.405273438 800.0859375 629.598632812 c 1,31,32
 820.315429688 647.448242188 820.315429688 647.448242188 845.3046875 647.448242188 c 0,33,34
 884.57421875 647.448242188 884.57421875 647.448242188 903.61328125 612.938476562 c 128,-1,35
 922.65234375 578.4296875 922.65234375 578.4296875 922.65234375 518.931640625 c 0,36,37
 922.65234375 468.953125 922.65234375 468.953125 903.61328125 433.25390625 c 0,38,39
 885.763671875 397.555664062 885.763671875 397.555664062 838.165039062 397.555664062 c 0,40,41
 826.265625 397.555664062 826.265625 397.555664062 814.366210938 399.935546875 c 0,42,43
 802.465820312 403.504882812 802.465820312 403.504882812 791.756835938 408.264648438 c 0,44,45
 721.548828125 278.55859375 721.548828125 278.55859375 659.669921875 216.680664062 c 128,-1,46
 597.791992188 154.802734375 597.791992188 154.802734375 537.104492188 128.623046875 c 1,47,-1
 572.802734375 -20.1220703125 l 1,48,-1
 553.763671875 -45.111328125 l 1,0,-1
884.57421875 548.680664062 m 2,49,50
 884.57421875 574.860351562 884.57421875 574.860351562 873.864257812 592.709960938 c 128,-1,51
 863.154296875 610.55859375 863.154296875 610.55859375 844.115234375 610.55859375 c 0,52,53
 828.645507812 604.609375 828.645507812 604.609375 817.935546875 593.899414062 c 0,54,55
 808.416015625 583.189453125 808.416015625 583.189453125 800.0859375 568.91015625 c 2,56,-1
 771.52734375 566.530273438 l 2,57,58
 750.107421875 593.899414062 750.107421875 593.899414062 723.928710938 622.458984375 c 2,59,-1
 671.5703125 678.38671875 l 2,60,61
 644.201171875 705.755859375 644.201171875 705.755859375 619.211914062 734.315429688 c 0,62,63
 595.412109375 764.064453125 595.412109375 764.064453125 577.5625 793.813476562 c 2,64,-1
 343.139648438 793.813476562 l 1,65,66
 301.491210938 735.504882812 301.491210938 735.504882812 252.702148438 674.817382812 c 0,67,68
 205.103515625 615.319335938 205.103515625 615.319335938 149.17578125 565.33984375 c 1,69,-1
 114.666992188 573.669921875 l 1,70,-1
 96.8173828125 602.229492188 l 2,71,72
 86.107421875 616.508789062 86.107421875 616.508789062 73.017578125 616.508789062 c 0,73,74
 57.5478515625 616.508789062 57.5478515625 616.508789062 49.21875 595.08984375 c 0,75,76
 40.888671875 574.860351562 40.888671875 574.860351562 40.888671875 552.250976562 c 2,77,-1
 39.69921875 527.26171875 l 1,78,-1
 40.888671875 499.892578125 l 2,79,80
 40.888671875 472.5234375 40.888671875 472.5234375 50.408203125 451.103515625 c 0,81,82
 61.1181640625 430.874023438 61.1181640625 430.874023438 81.34765625 430.874023438 c 0,83,84
 90.8671875 430.874023438 90.8671875 430.874023438 100.38671875 435.633789062 c 128,-1,85
 109.90625 440.39453125 109.90625 440.39453125 119.426757812 447.534179688 c 2,86,-1
 147.985351562 445.154296875 l 1,87,88
 205.103515625 338.056640625 205.103515625 338.056640625 272.931640625 270.229492188 c 0,89,90
 340.759765625 203.590820312 340.759765625 203.590820312 425.247070312 158.372070312 c 1,91,-1
 510.924804688 158.372070312 l 1,92,93
 601.362304688 202.401367188 601.362304688 202.401367188 662.05078125 278.55859375 c 128,-1,94
 722.73828125 354.716796875 722.73828125 354.716796875 767.95703125 442.774414062 c 1,95,-1
 795.326171875 448.723632812 l 2,96,97
 804.845703125 442.774414062 804.845703125 442.774414062 815.555664062 439.204101562 c 128,-1,98
 826.265625 435.633789062 826.265625 435.633789062 836.975585938 435.633789062 c 0,99,100
 861.96484375 435.633789062 861.96484375 435.633789062 872.673828125 455.86328125 c 0,101,102
 884.57421875 476.092773438 884.57421875 476.092773438 884.57421875 522.501953125 c 2,103,-1
 884.57421875 548.680664062 l 2,49,50
434.766601562 115.533203125 m 0,104,105
 419.297851562 54.845703125 419.297851562 54.845703125 405.017578125 -7.0322265625 c 1,106,-1
 529.963867188 -7.0322265625 l 1,107,-1
 501.405273438 115.533203125 l 2,108,109
 483.555664062 111.963867188 483.555664062 111.963867188 468.0859375 111.963867188 c 0,110,111
 450.236328125 111.963867188 450.236328125 111.963867188 434.766601562 115.533203125 c 0,104,105
700.12890625 539.161132812 m 1,112,-1
 643.010742188 535.590820312 l 2,113,114
 621.591796875 533.2109375 621.591796875 533.2109375 615.641601562 533.2109375 c 0,115,116
 559.712890625 533.2109375 559.712890625 533.2109375 532.34375 560.580078125 c 1,117,118
 565.663085938 582 565.663085938 582 596.602539062 582 c 0,119,120
 633.491210938 582 633.491210938 582 700.12890625 539.161132812 c 1,112,-1
406.208007812 560.580078125 m 1,121,122
 365.749023438 533.2109375 365.749023438 533.2109375 306.250976562 533.2109375 c 2,123,-1
 283.641601562 535.590820312 l 1,124,-1
 217.00390625 539.161132812 l 1,125,126
 282.451171875 582 282.451171875 582 336 582 c 0,127,128
 374.079101562 582 374.079101562 582 406.208007812 560.580078125 c 1,121,122
583.512695312 308.307617188 m 1,129,130
 535.9140625 274.989257812 535.9140625 274.989257812 471.65625 274.989257812 c 0,131,132
 408.587890625 274.989257812 408.587890625 274.989257812 343.139648438 308.307617188 c 1,133,134
 401.448242188 351.146484375 401.448242188 351.146484375 426.4375 351.146484375 c 0,135,136
 440.716796875 351.146484375 440.716796875 351.146484375 465.706054688 339.247070312 c 2,137,-1
 502.594726562 353.526367188 l 2,138,139
 532.34375 353.526367188 532.34375 353.526367188 583.512695312 308.307617188 c 1,129,130
597.791992188 815.233398438 m 2,140,141
 609.69140625 795.00390625 609.69140625 795.00390625 632.30078125 768.82421875 c 0,142,143
 654.91015625 743.834960938 654.91015625 743.834960938 679.899414062 718.845703125 c 2,144,-1
 728.688476562 670.057617188 l 1,145,-1
 766.767578125 629.598632812 l 1,146,147
 733.448242188 741.455078125 733.448242188 741.455078125 652.530273438 799.763671875 c 0,148,149
 572.802734375 858.071289062 572.802734375 858.071289062 456.186523438 858.071289062 c 0,150,151
 344.330078125 858.071289062 344.330078125 858.071289062 263.412109375 798.573242188 c 0,152,153
 183.684570312 740.264648438 183.684570312 740.264648438 156.315429688 629.598632812 c 1,154,155
 189.634765625 656.967773438 189.634765625 656.967773438 239.61328125 715.276367188 c 0,156,157
 290.78125 773.583984375 290.78125 773.583984375 318.150390625 815.233398438 c 2,158,-1
 341.950195312 829.512695312 l 1,159,-1
 573.993164062 829.512695312 l 1,160,-1
 597.791992188 815.233398438 l 2,140,141
EndSplineSet
EndChar

StartChar: five
Encoding: 53 53 54
Width: 1342
VWidth: 0
Flags: W
LayerCount: 2
Fore
SplineSet
503.97265625 462.69921875 m 0,0,1
 413.182617188 465.342773438 413.182617188 465.342773438 276.555664062 495.3125 c 0,2,3
 207.801757812 510.297851562 207.801757812 510.297851562 155.795898438 516.467773438 c 128,-1,4
 103.790039062 522.637695312 103.790039062 522.637695312 68.53125 522.637695312 c 0,5,6
 52.6650390625 522.637695312 52.6650390625 522.637695312 36.798828125 520.875 c 0,7,8
 21.8134765625 519.993164062 21.8134765625 519.993164062 6.8291015625 518.23046875 c 1,9,10
 15.6435546875 527.926757812 15.6435546875 527.926757812 46.4951171875 539.385742188 c 0,11,12
 77.345703125 551.7265625 77.345703125 551.7265625 119.65625 564.06640625 c 0,13,14
 169.899414062 629.294921875 169.899414062 629.294921875 218.379882812 675.130859375 c 0,15,16
 266.859375 721.84765625 266.859375 721.84765625 314.458984375 750.936523438 c 0,17,18
 362.057617188 780.90625 362.057617188 780.90625 409.65625 794.127929688 c 0,19,20
 457.254882812 808.231445312 457.254882812 808.231445312 506.6171875 808.231445312 c 0,21,22
 599.170898438 808.231445312 599.170898438 808.231445312 833.638671875 698.9296875 c 2,23,-1
 921.78515625 657.501953125 l 2,24,25
 1004.64257812 617.8359375 1004.64257812 617.8359375 1064.58203125 599.325195312 c 128,-1,26
 1124.52050781 580.814453125 1124.52050781 580.814453125 1164.18652344 570.237304688 c 2,27,-1
 1268.19921875 542.912109375 l 2,28,29
 1308.74609375 532.333984375 1308.74609375 532.333984375 1329.01953125 514.705078125 c 1,30,31
 1275.25097656 521.756835938 1275.25097656 521.756835938 1236.46679688 525.282226562 c 0,32,33
 1198.56347656 529.689453125 1198.56347656 529.689453125 1173.8828125 529.689453125 c 0,34,35
 1120.11328125 529.689453125 1120.11328125 529.689453125 1036.375 522.637695312 c 0,36,37
 953.517578125 516.467773438 953.517578125 516.467773438 838.927734375 498.838867188 c 128,-1,38
 724.337890625 481.208984375 724.337890625 481.208984375 640.598632812 471.513671875 c 0,39,40
 557.7421875 462.69921875 557.7421875 462.69921875 503.97265625 462.69921875 c 0,0,1
370.872070312 635.46484375 m 128,-1,42
 370.872070312 610.784179688 370.872070312 610.784179688 381.450195312 587.866210938 c 128,-1,43
 392.02734375 564.948242188 392.02734375 564.948242188 409.65625 546.4375 c 0,44,45
 427.286132812 528.80859375 427.286132812 528.80859375 450.204101562 517.349609375 c 0,46,47
 473.122070312 506.771484375 473.122070312 506.771484375 497.802734375 506.771484375 c 0,48,49
 523.365234375 506.771484375 523.365234375 506.771484375 548.045898438 516.467773438 c 0,50,51
 573.608398438 527.045898438 573.608398438 527.045898438 593 543.79296875 c 0,52,53
 613.2734375 561.421875 613.2734375 561.421875 625.614257812 585.221679688 c 128,-1,54
 637.955078125 609.021484375 637.955078125 609.021484375 637.955078125 635.46484375 c 0,55,56
 637.955078125 664.553710938 637.955078125 664.553710938 626.49609375 687.471679688 c 0,57,58
 615.037109375 711.270507812 615.037109375 711.270507812 595.64453125 728.018554688 c 0,59,60
 576.252929688 745.647460938 576.252929688 745.647460938 550.690429688 754.461914062 c 0,61,62
 525.127929688 764.158203125 525.127929688 764.158203125 497.802734375 764.158203125 c 0,63,64
 472.240234375 764.158203125 472.240234375 764.158203125 449.322265625 753.581054688 c 128,-1,65
 426.404296875 743.002929688 426.404296875 743.002929688 408.775390625 724.4921875 c 0,66,67
 391.145507812 706.86328125 391.145507812 706.86328125 380.568359375 683.063476562 c 0,68,41
 370.872070312 660.145507812 370.872070312 660.145507812 370.872070312 635.46484375 c 128,-1,42
630.903320312 515.5859375 m 1,69,70
 661.75390625 519.112304688 661.75390625 519.112304688 711.997070312 525.282226562 c 0,71,72
 762.240234375 532.333984375 762.240234375 532.333984375 826.586914062 542.030273438 c 128,-1,73
 890.93359375 551.7265625 890.93359375 551.7265625 944.703125 556.133789062 c 0,74,75
 998.471679688 561.421875 998.471679688 561.421875 1042.54492188 561.421875 c 1,76,77
 989.657226562 575.525390625 989.657226562 575.525390625 854.793945312 640.75390625 c 0,78,79
 787.802734375 673.368164062 787.802734375 673.368164062 736.678710938 694.522460938 c 0,80,81
 685.553710938 716.559570312 685.553710938 716.559570312 655.583984375 728.018554688 c 1,82,83
 682.02734375 688.352539062 682.02734375 688.352539062 682.02734375 635.46484375 c 0,84,85
 682.02734375 565.830078125 682.02734375 565.830078125 630.903320312 515.5859375 c 1,69,70
171.662109375 559.659179688 m 1,86,87
 227.194335938 544.674804688 227.194335938 544.674804688 279.200195312 533.215820312 c 0,88,89
 332.087890625 522.637695312 332.087890625 522.637695312 374.3984375 518.23046875 c 1,90,91
 326.798828125 571.118164062 326.798828125 571.118164062 326.798828125 635.46484375 c 0,92,93
 326.798828125 683.063476562 326.798828125 683.063476562 348.8359375 720.966796875 c 1,94,95
 306.525390625 697.166992188 306.525390625 697.166992188 263.333984375 657.501953125 c 128,-1,96
 220.142578125 617.8359375 220.142578125 617.8359375 171.662109375 559.659179688 c 1,86,87
EndSplineSet
EndChar
